<?xml version="1.0" encoding="UTF-8"?>
<svg xmlns="http://www.w3.org/2000/svg" xmlns:xlink="http://www.w3.org/1999/xlink" viewBox="0 0 1200 800">
  <defs>
    <style>
      .cls-1 {
        fill: #9aaacc;
      }

      .cls-2 {
        fill: #e55248;
      }

      .cls-3 {
        fill: #fed0ca;
      }

      .cls-4 {
        fill: #012a46;
      }

      .cls-5, .cls-6 {
        fill: #c0d3ed;
      }

      .cls-5, .cls-7, .cls-8 {
        mix-blend-mode: multiply;
      }

      .cls-9 {
        fill: #01bbca;
      }

      .cls-10 {
        fill: #3854d9;
      }

      .cls-11 {
        fill: #fdb9b1;
      }

      .cls-12 {
        fill: #616f8e;
      }

      .cls-13 {
        fill: #afd1f4;
      }

      .cls-14 {
        fill: #fe6b61;
      }

      .cls-15 {
        fill: #6c7996;
      }

      .cls-16 {
        fill: #8c1b00;
      }

      .cls-17 {
        fill: #f84e6a;
      }

      .cls-18 {
        fill: #fff886;
      }

      .cls-19 {
        fill: #7f2e00;
      }

      .cls-20 {
        fill: #796b6a;
      }

      .cls-21, .cls-7 {
        fill: #4aabed;
      }

      .cls-22 {
        isolation: isolate;
      }

      .cls-23 {
        fill: #e58d61;
      }

      .cls-24 {
        fill: #eef2f6;
      }

      .cls-25 {
        fill: #6b402f;
      }

      .cls-26 {
        fill: #ffb288;
      }

      .cls-27 {
        fill: url(#linear-gradient);
      }

      .cls-27, .cls-28 {
        mix-blend-mode: screen;
      }

      .cls-28 {
        fill: url(#linear-gradient-2);
      }

      .cls-7 {
        opacity: .6;
      }

      .cls-29 {
        fill: #507fcd;
      }

      .cls-30 {
        fill: #8a1a01;
      }

      .cls-31 {
        fill: #fff;
      }

      .cls-32 {
        fill: #666;
      }

      .cls-33 {
        fill: #e4ebf4;
      }

      .cls-34 {
        fill: #95a6c4;
      }

      .cls-35, .cls-36 {
        fill: #fafaff;
      }

      .cls-37 {
        fill: #f49402;
      }

      .cls-38 {
        opacity: .39;
      }

      .cls-39 {
        opacity: .57;
      }

      .cls-40 {
        fill: #f7f7f7;
      }

      .cls-41 {
        fill: #4b6087;
      }

      .cls-42 {
        fill: #f2f2f2;
      }

      .cls-43 {
        fill: #75819b;
      }

      .cls-44 {
        fill: #0c5a75;
      }

      .cls-45 {
        fill: #b3b3b3;
      }

      .cls-46 {
        fill: #516df2;
      }

      .cls-47 {
        fill: #323334;
      }

      .cls-48 {
        fill: #ef9d6f;
      }

      .cls-36 {
        opacity: .3;
      }

      .cls-49 {
        fill: #d7d7e2;
      }

      .cls-50 {
        fill: #f3f3ff;
      }

      .cls-8, .cls-51 {
        fill: #ebebf7;
      }

      .cls-52 {
        fill: #191a1b;
      }

      .cls-53 {
        fill: #abddff;
      }

      .cls-54 {
        fill: #00a2b1;
      }

      .cls-55 {
        fill: #c9ddf2;
      }
    </style>
    <linearGradient id="linear-gradient" x1="635.89" y1="105.12" x2="527.81" y2="328.74" gradientUnits="userSpaceOnUse">
      <stop offset="0" stop-color="#fff886"/>
      <stop offset="1" stop-color="#000"/>
    </linearGradient>
    <linearGradient id="linear-gradient-2" x1="712.33" y1="-41.17" x2="485.7" y2="427.71" xlink:href="#linear-gradient"/>
  </defs>
  <g class="cls-22">
    <g id="Layer_11" data-name="Layer 11">
      <g>
        <rect class="cls-31" width="1200" height="800"/>
        <path class="cls-55" d="M775.26,647.19h-507.08c-4.64-7.01-57.24-66.65-112.08-152.75C56.52,338.12,192.59-14.34,614.81,84.35c281.96,65.91,352.04-6.25,426.71,107.47,70.75,107.7,49.96,319.88-266.25,455.38Z"/>
        <g>
          <polygon class="cls-53" points="211.54 217.19 211.54 382.63 211.54 412.95 211.54 649.88 444.61 649.88 444.61 412.95 444.61 382.63 444.61 217.19 211.54 217.19"/>
          <rect class="cls-40" x="329.58" y="217.19" width="124.31" height="317.97"/>
          <rect class="cls-53" x="338.25" y="226.96" width="105.91" height="308.88"/>
          <rect class="cls-31" x="338.25" y="286.94" width="105.91" height="6.52"/>
          <rect class="cls-31" x="340.33" y="355.55" width="104" height="6.52"/>
          <rect class="cls-31" x="340.33" y="424.46" width="104" height="6.52"/>
          <rect class="cls-31" x="392.8" y="258.9" width="43.93" height="28"/>
          <rect class="cls-17" x="362.08" y="272.9" width="26.3" height="14.04"/>
          <rect class="cls-17" x="341.91" y="340.25" width="25.82" height="14.04"/>
          <rect class="cls-31" x="353.01" y="327.03" width="16.92" height="28.12"/>
          <rect class="cls-31" x="415.47" y="396.34" width="16.62" height="28.12"/>
          <rect class="cls-31" x="349.83" y="413.5" width="16.62" height="10.96"/>
          <rect class="cls-31" x="395.81" y="327.49" width="32.23" height="28.12"/>
          <rect class="cls-44" x="363.79" y="396.34" width="31.65" height="28.12"/>
          <rect class="cls-44" x="381.03" y="343.56" width="31.65" height="11.33"/>
          <rect class="cls-31" x="393.39" y="407.23" width="16.62" height="17.08"/>
          <rect class="cls-31" x="373.2" y="338.55" width="13.55" height="17.08"/>
          <rect class="cls-31" x="356.39" y="269.82" width="13.55" height="17.08"/>
          <g>
            <rect class="cls-29" x="406.26" y="451.6" width="17.1" height="85.09"/>
            <rect class="cls-13" x="409.53" y="458.73" width="10.55" height="45.65"/>
            <rect class="cls-13" x="409.53" y="453.91" width="10.55" height="2.79" transform="translate(829.62 910.61) rotate(180)"/>
            <rect class="cls-29" x="387.52" y="451.6" width="17.1" height="85.09"/>
            <rect class="cls-13" x="390.79" y="458.73" width="10.55" height="45.65"/>
            <rect class="cls-13" x="390.79" y="453.91" width="10.55" height="2.79" transform="translate(792.13 910.61) rotate(180)"/>
            <rect class="cls-29" x="326.77" y="485.59" width="85.09" height="17.1" transform="translate(-191.29 751.62) rotate(-77.9)"/>
            <rect class="cls-13" x="349.13" y="476.56" width="45.65" height="10.55" transform="translate(-177.17 744.48) rotate(-77.9)"/>
            <rect class="cls-13" x="372.18" y="454.77" width="10.55" height="2.79" transform="translate(650.86 981.35) rotate(-167.89)"/>
            <rect class="cls-29" x="424.58" y="451.6" width="17.1" height="85.09"/>
            <rect class="cls-13" x="427.86" y="458.73" width="10.55" height="45.65"/>
            <rect class="cls-13" x="427.86" y="453.91" width="10.55" height="2.79" transform="translate(866.26 910.61) rotate(180)"/>
          </g>
          <g class="cls-39">
            <rect class="cls-24" x="338.25" y="227.09" width="105.9" height="308.07"/>
          </g>
          <g class="cls-38">
            <polygon class="cls-31" points="392.8 227.09 341.93 424.26 337.36 424.26 337.36 392.45 380.03 227.09 392.8 227.09"/>
          </g>
          <g class="cls-38">
            <polygon class="cls-31" points="447.44 227.09 367.15 535.16 345.63 535.16 425.92 227.09 447.44 227.09"/>
          </g>
          <rect class="cls-40" x="200.25" y="217.19" width="125.71" height="317.97"/>
          <rect class="cls-53" x="211.54" y="226.96" width="105.91" height="308.88"/>
          <rect class="cls-31" x="211.54" y="286.94" width="105.91" height="6.52"/>
          <rect class="cls-31" x="211.76" y="355.55" width="104" height="6.52"/>
          <rect class="cls-31" x="211.76" y="424.46" width="104" height="6.52"/>
          <rect class="cls-17" x="268.68" y="410.26" width="26.3" height="14.04"/>
          <rect class="cls-17" x="217.48" y="340.25" width="25.82" height="14.04"/>
          <rect class="cls-31" x="271.73" y="258.84" width="16.92" height="28.12"/>
          <rect class="cls-31" x="291.04" y="396.34" width="16.62" height="28.12"/>
          <rect class="cls-31" x="225.4" y="413.5" width="16.62" height="10.96"/>
          <rect class="cls-31" x="269.1" y="327.49" width="32.23" height="28.12"/>
          <rect class="cls-44" x="256.6" y="343.56" width="31.65" height="11.33"/>
          <rect class="cls-44" x="264.49" y="275.63" width="15.83" height="11.33"/>
          <rect class="cls-31" x="235" y="407.23" width="16.62" height="17.08"/>
          <rect class="cls-31" x="246.49" y="338.55" width="13.55" height="17.08"/>
          <rect class="cls-31" x="229.68" y="269.82" width="13.55" height="17.08"/>
          <g>
            <rect class="cls-29" x="281.83" y="451.6" width="17.1" height="85.09"/>
            <rect class="cls-13" x="285.1" y="458.73" width="10.55" height="45.65"/>
            <rect class="cls-13" x="285.1" y="453.91" width="10.55" height="2.79" transform="translate(580.76 910.61) rotate(180)"/>
            <rect class="cls-29" x="263.09" y="451.6" width="17.1" height="85.09"/>
            <rect class="cls-13" x="266.36" y="458.73" width="10.55" height="45.65"/>
            <rect class="cls-13" x="266.36" y="453.91" width="10.55" height="2.79" transform="translate(543.27 910.61) rotate(180)"/>
            <rect class="cls-29" x="300.15" y="451.6" width="17.1" height="85.09"/>
            <rect class="cls-13" x="303.43" y="458.73" width="10.55" height="45.65"/>
            <rect class="cls-13" x="303.43" y="453.91" width="10.55" height="2.79" transform="translate(617.4 910.61) rotate(180)"/>
          </g>
          <g>
            <rect class="cls-29" x="226.55" y="451.6" width="17.1" height="85.09"/>
            <rect class="cls-13" x="229.82" y="458.73" width="10.55" height="45.65"/>
            <rect class="cls-13" x="229.82" y="453.91" width="10.55" height="2.79" transform="translate(470.2 910.61) rotate(180)"/>
            <rect class="cls-29" x="244.87" y="451.6" width="17.1" height="85.09"/>
            <rect class="cls-13" x="248.15" y="458.73" width="10.55" height="45.65"/>
            <rect class="cls-13" x="248.15" y="453.91" width="10.55" height="2.79" transform="translate(506.84 910.61) rotate(180)"/>
          </g>
          <g class="cls-39">
            <rect class="cls-24" x="211.54" y="227.09" width="105.9" height="308.07"/>
          </g>
          <g class="cls-38">
            <polygon class="cls-31" points="266.09 227.09 215.21 424.26 210.65 424.26 210.65 392.45 253.32 227.09 266.09 227.09"/>
          </g>
          <g class="cls-38">
            <polygon class="cls-31" points="320.73 227.09 240.44 535.16 218.91 535.16 299.21 227.09 320.73 227.09"/>
          </g>
          <rect class="cls-40" x="200.25" y="535.85" width="253.64" height="122.51"/>
          <rect class="cls-40" x="372.75" y="559.79" width="33.38" height="4.27"/>
          <polygon class="cls-53" points="330.92 547.68 330.92 586.76 330.92 593.92 330.92 649.88 444.61 649.88 444.61 593.92 444.61 586.76 444.61 547.68 330.92 547.68"/>
          <rect class="cls-40" x="325.22" y="568.67" width="33.38" height="4.27" transform="translate(-228.88 912.71) rotate(-90)"/>
          <polygon class="cls-53" points="325.81 547.68 325.81 586.76 325.81 593.92 325.81 649.88 212.11 649.88 212.11 593.92 212.11 586.76 212.11 547.68 325.81 547.68"/>
          <rect class="cls-40" x="298.12" y="568.67" width="33.38" height="4.27" transform="translate(-255.99 885.61) rotate(-90)"/>
          <rect class="cls-40" x="444.61" y="648.74" width="9.29" height="18.45"/>
          <rect class="cls-40" x="200.18" y="648.74" width="9.29" height="18.45"/>
        </g>
        <g>
          <g>
            <ellipse class="cls-55" cx="390.62" cy="694.1" rx="76.94" ry="20.27"/>
            <g>
              <path class="cls-48" d="M416.28,398l8.22-10.56c.86-1.1,1.75-2.29,1.87-3.68.14-1.64-.83-3.14-1.74-4.52-6.11-9.27-11.98-14.28-13.65-25.26-1.23-8.11-4.1-29.04.56-36.13,0,0,8.69-.72,16.16,18.32,7.85,20.01,12.37,34.34,16.99,55.34.23,1.04.46,2.12.18,3.15-.32,1.2-1.27,2.11-2.19,2.95-7.87,7.23-27.94,2.36-26.4.38Z"/>
              <path class="cls-10" d="M411.54,317.85c-4.66,7.09-1.79,28.02-.56,36.13,1.12,7.36,4.13,12.03,7.83,17.11,6.09-2.78,15.84-4.09,22.65-4.33-2.93-9.94-7.01-17.89-11.46-29.23-7.47-19.03-18.46-19.67-18.46-19.67Z"/>
              <path class="cls-3" d="M403.37,376.29c-14.29-13.23-14.5-4.47-16.47-2.08-1.02,1.24-5.18,11.65-6.76,11.91-9.27,1.49-26.77,1.36-33.26,7.02,1.29-4.08,2.62-9.27,3.72-14.9,2.74-14.12,3.95-31.09-.95-40.63-2.58-5.03-6.17-9.89-11.37-12.09-2.43-1.03-5.04-2.19-8.96,1.82-3.12,3.19-6.76,13.39-7.39,21.28-.75,9.44-.68,20.4.06,30.78,1.28,18,4.59,34.27,9.12,37.9,25.45.56,50.41-17.89,58.03-28.83,9.22-13.24,5.43-1.88,10.61-2.88,4-.77,5.78-7.28,3.61-9.29Z"/>
              <g>
                <g>
                  <path class="cls-48" d="M383.22,649.98c-.29,8.48-1.32,15.74-4.15,20.72-.16.29-4.46,7.55-1.81,10.27,4.35,4.47,17.28,3.61,25.65,2.54,21.55-2.75,3.78-10.86,1.57-19.09-1.63-6.05.34-8.91,1.06-15.2-6.96,2.12-14.56,2.56-22.31.75Z"/>
                  <path class="cls-10" d="M428.66,483.36c-2.16-19.19-.43-37.7-16.38-50.44-2.36,1.86-21-11.65-33.52,12.38-19.23,36.89-1.25,69.53,12.24,97.02,2.99,6.1-.5,19.17-4.05,30.02-7.22,22.05-2.92,53.99-3.73,77.64,7.75,1.81,20.86,2.37,27.83.24,4.45-38.82,15.57-77.52,16.76-84.74,1.65-10.02,5.11-44.39.86-82.12Z"/>
                </g>
                <g>
                  <path class="cls-26" d="M357.22,661.23c.06,4.63-.48,9.72-1.86,13.86-.29.91-.8,1.83-1.39,2.77-7.14,17.02,8.58,10.58,15.05,12.08,11.29,2.62,17.3.92,12.68-10.35-2.41-5.85-3.9-11.93-4.56-20.76-6.07,2.5-12.8,3.01-19.91,2.4Z"/>
                  <path class="cls-46" d="M404.04,475.33c-.17,2.05-.34,4.05-.51,6-.41,4.67-.83,9.11-1.26,13.31-5.8,57.86-12.62,73.52-16.63,79.96-1.57,2.51-2.06,5.31-2.38,7.03-4.88,25.31-3.34,66.55-2.47,78.22-6.07,2.5-20.15,2.1-27.26,1.5-7.59-29.43-10.54-46.28-8.62-73.41.62-8.77.96-23.1,2.24-31.8,2.15-14.61,2.07-28.18.97-41.38-1.21-14.21-3.64-27.98-5.84-42.13-.57-3.65-.74-7.34-.51-10.92.17-2.74.58-5.43,1.23-8,2.13-8.47,6.84-15.58,14.16-19.08,6.63-3.18,15.41-3.4,26.35,1.04,16.55,6.72,21.74,25.11,20.53,39.65Z"/>
                </g>
                <g>
                  <path class="cls-46" d="M409.4,688.42c-9.23-1.7-18.71-3.68-27.99-2.55.25,2.33-.11,5.33,1.4,7.15,18.69,1.69,14.83-4.84,23.12-2.48,5.63,1.6,22.24,6.31,35.51.45.1-.99-.19-1.85-.74-2.6-.35.1-.7.21-1.04.32-9.64,3.06-20.25,1.56-30.26-.28Z"/>
                  <path class="cls-42" d="M427.56,682.1c-8.21-1.98-14.41-10.31-18.52-12.66-4.05-2.32-4.32,6.7-5.5,8.44-6.94,10.22-22.71,6.09-22.13,8,9.28-1.12,18.76.85,27.99,2.55,10.01,1.85,20.62,3.34,30.26.28.34-.11.69-.22,1.04-.32-2.27-3.1-8.82-5.25-13.14-6.29Z"/>
                </g>
                <g>
                  <path class="cls-46" d="M381.55,692.9c-9.23-1.85-18.71-3.99-27.99-2.78.25,2.53-.43,4.55,1.08,6.52,18.69,1.83,15.14-4.01,23.44-1.45,5.63,1.74,22.24,6.85,35.51.5.1-1.07-.19-2-.74-2.82-.35.11-.7.23-1.04.35-9.64,3.32-20.25,1.69-30.26-.31Z"/>
                  <path class="cls-31" d="M399.7,686.04c-8.21-2.14-14.42-11.19-18.52-13.73-4.05-2.52-4.32,7.26-5.5,9.15-6.94,11.08-22.7,6.6-22.13,8.67,9.28-1.21,18.76.93,27.99,2.78,10.01,2,20.62,3.63,30.26.31.34-.12.69-.24,1.04-.35-2.27-3.36-8.82-5.69-13.14-6.82Z"/>
                </g>
              </g>
              <path class="cls-10" d="M403.53,481.33c-.41,4.67-.83,9.11-1.26,13.31-.26,0-.48,0-.64,0-6.39.02-12.72-.51-19.09.22-9.65,1.12-17.5,4.42-25.04,10.36-3.55,2.8-6.64,6.21-9.38,9.56-1.21-14.21-3.64-27.98-5.84-42.13-.57-3.65-.74-7.34-.51-10.92.36-2.66.76-5.38,1.23-8,1.8-10.16,4.55-19.17,9.83-20.04,1.3-.21,2.76.15,4.33.96,10.09,5.24,24.59,29.04,31.32,33.77,5.01,3.54,11,7.87,15.05,12.92Z"/>
              <path class="cls-16" d="M400.49,247.02c.82-1.08,2.89-.67,3.59.49,17.39,28.55-5.09,92.58-11.16,95.09-.61.25-42.37-9.23-42.87-5.94-4.21-4.78.99-40.21-1.03-46.25-1.41-4.19-1.63-8.67-1.63-13.09,0-4.71.26-9.46,1.53-14,1.87-6.66,5.88-12.59,10.85-17.4,2.64-2.55,5.61-4.83,8.99-6.27,4.69-2,9.95-2.27,15.03-1.87,3.63.29,7.3.92,10.52,2.61,3.22,1.69,5.32,3.09,6.17,6.63Z"/>
              <path class="cls-46" d="M430.97,483.24c-16.01,0-14.41,10.39-67.98,8.77-3.34-.1-6.89-.25-10.67-.46-1.53-.08-2.14-47.15-3.73-47.25-1.35,0-5.52,46.59-6.92,46.59-4.35-.3-7.11-.52-12.04-.95,0,0,2.85-22.45,5.02-48.43,1.78-21.12-12.19-108.02-4.58-117.42,1.74-2.15,3.67-4.06,5.74-5.73,23.19-18.79,65.13-9.71,76.85-.83.93.71,6.76,7.84,15.83,29.65,3.03,7.29-.77,15.04-2.3,21.73-12.75,55.76,3.28,54.37,4.77,114.32Z"/>
              <path class="cls-48" d="M394.8,312.68c2.76,1.63,2.81,10.74-1.76,23.99-7.75-7.57-24.81-17.08-30.63-24.13-3.76-4.55,1.23-6.12,3.61-33.07.3-3.45,29.39,5.85,26.06,13.16-3.16,6.93-2.52,19.8,2.72,20.05Z"/>
              <path class="cls-26" d="M364.16,266.62c.49,21.83,12.57,33.23,25.21,33.75,6.29.26,17-10.15,17.29-25.24.07-3.61,2.33-7.28,2.32-10.59-.06-16.27-10.09-23.4-22.74-23.13-12.65.28-22.44,8.94-22.08,25.21Z"/>
              <path class="cls-48" d="M412.33,265.46c-1.33.91-4.48,7.31-6.41-6.49-5.48,4.38-28.11,9.21-31.68,10.8-5.05,2.25-7.03,2.28-4.43-2.71,3.14-6.02,10.31-8.62,16.97-9.96,2.78-.56,5.59-.98,8.34-1.63,2.27-.54,6.88-3.38,8.89-3.26,6.41.4,11.05,11.37,8.31,13.24Z"/>
              <path class="cls-30" d="M400.14,259.45c-6.05,3.38-35.18,7.87-34.11,20.01,2.64,29.9,2.59,34.45,8.27,41.2-5.68,2.67-30.38,3.12-30.9-7.18-1.11-22.21-4.63-77.11,40.9-80.88,7.33-.61,19,4.6,22.34,12.62,3.48,8.35-1.15,11.24-6.51,14.23Z"/>
              <path class="cls-30" d="M408.41,243.85c9.6,8.36,9.06,30.34,2.16,41.34,3.49,25.8.28,30.19-1.59,31.48-2.89,2-6.37,3.72-9.77,2.85,6.73-6.57,7.89-19.15,8.99-30.97.56-6.09.68-18.45-.08-24.52-.95-7.55-2.57-14.56-7.34-20.49-1.46-1.82-3.06-3.78-5.22-4.75,3.4,1.33,10.13,2.68,12.86,5.06Z"/>
              <path class="cls-11" d="M370.72,574.64c0,.33.07.61.21.86-.06-.28-.13-.58-.21-.86Z"/>
              <path class="cls-10" d="M370.05,371.11c-1.29,6.09-4.88,11.23-6.15,17.02-1.43,6.48-7.47,23.33-1.29,20.22,22.5-11.34,55.14-7.71,58.81-.59,1.22,2.37-19.57,13.39-19.97,13.37-.81,0-17.79-.12-35.12,1.98-8.61,8.61-20.04,15.39-31.67,18.42,1.78-21.12-12.19-108.02-4.58-117.42,1.74-2.15,3.67-4.06,5.74-5.73,14.96,2.32,24.54,18.7,29.93,31.81,2.73,6.66,5.84,13.6,4.3,20.92Z"/>
              <g>
                <polygon class="cls-35" points="392.1 377.48 368.86 358 370.42 356.04 393.51 375.8 392.1 377.48"/>
                <path class="cls-47" d="M368.58,358.54l-5.65-5.92-1.38-2.84.65-.73,2.55,1,14.66,11.44-.53.6s-8.13-6.29-8.58-5.36-1.72,1.82-1.72,1.82Z"/>
              </g>
              <path class="cls-26" d="M399.76,385.59c-5.01.97-1.61-9.66-9.77,1.69-.27.37-.54.76-.83,1.18-7.63,10.95-32.59,29.39-58.03,28.83-4.37-3.49-7.61-18.75-8.98-35.98-.05-.64-.1-1.27-.14-1.92,9.2-2.92,19.19-3.33,28.6-1.16-1.09,5.64-.85,8.33-2.15,12.4,6.49-5.66,22.42-3.03,31.69-4.53,1.59-.25,5.75-10.67,6.77-11.9,1.97-2.39,2.19-11.15,16.47,2.07,2.18,2.02.39,8.53-3.6,9.3Z"/>
              <path class="cls-48" d="M389.98,387.28c-.27.37-.54.76-.83,1.18-7.63,10.95-32.59,29.39-58.03,28.83-4.37-3.49-7.61-18.75-8.98-35.98,2.03-2.38,4.48-3.97,6.69-2.65.12,4.71,4.62,28.73,7.88,30.65,6.36,3.75,20.34-2.95,26.15-5.63,5.75-2.66,15.1-8.49,21.01-13.05,1.61-1.24,3.37-3.09,6.12-3.36Z"/>
              <polygon class="cls-31" points="403.46 415.97 362.21 414.31 403.46 365.31 455.74 365.39 403.46 415.97"/>
              <path class="cls-48" d="M392.88,411.18c-.75.14-2.04.3-2.08-.45-.11-1.8.89-.87,9.5-3.66-3.99.48-12.78,2.33-12.94,0,0-1.33,1.13-.92,12.3-3.55-4.02.86-8.66.52-12.76.22-1.96-.14-2.68-1.61-.82-2.29,4.02-1.48,10-.33,13.69-2.51-3.08-.22-4.96-.53-8.04-.74-3.68-.26-3.72-3.27,0-3.3,2.49-.02,4.97-.05,7.46-.07,2.4-.02,5.36-.41,6.21-2.66.37-.98.2-2.06.15-3.11-.23-4.28,3.05-3.76,3.34-2.49.1.44-.07.9-.2,1.34-.68,2.24,1.08,3.56,2.71,5.37,3.07,3.41,1.63,3.08,16.84-3.98,1.27-.59,3.38-1.77,4.68-2.28,2.76-1.06,16.9-5.67,11.41,15.12-.27,1.03-.57,2.1-1.28,2.88-.83.92-2.1,1.3-3.3,1.63-10.31,2.84-19.48,2.22-30.17,2-.92-.02-15.58,2.33-16.71,2.53Z"/>
              <path class="cls-46" d="M349.29,387.43c2.74-14.12,2.93-37.82,1.7-48.47-.71-6.08-5.66-13.95-10.86-16.15-2.43-1.03-5.46-1.9-10.06,1.31-12.97,9.05-14.8,51.44-13.33,65.65,9.2-2.91,23.15-4.49,32.55-2.33Z"/>
              <path class="cls-26" d="M371.7,272.11c0,3.67-1.89,6.65-4.22,6.65s-4.22-2.98-4.22-6.65,1.89-6.65,4.22-6.65,4.22,2.98,4.22,6.65Z"/>
            </g>
          </g>
          <g>
            <g>
              <g>
                <path class="cls-12" d="M943.69,616.05c-8.66,0-18.16-7.1-20.41-21.33-1.39-8.78,3.83-118.21,4.05-122.86l4.99.24c-1.51,31.56-5.2,114.97-4.11,121.84,1.88,11.9,9.62,17.59,16.3,17.08,5.86-.46,12.71-6.09,12.74-20.48.05-26.38-15.02-121.78-15.17-122.74l4.94-.78c.62,3.94,15.28,96.75,15.24,123.53-.03,17.79-9.37,24.83-17.35,25.46-.4.03-.8.05-1.21.05Z"/>
                <path class="cls-12" d="M1001.43,622.9c-6.85,0-14.81-6.86-16.66-22.32-.34-2.87.4-9.88,1.85-23.06,2.92-26.58,7.82-71.07,3.99-106.32l4.97-.54c3.89,35.8-1.04,80.63-3.99,107.41-1.2,10.88-2.14,19.48-1.85,21.92,1.45,12.13,7.17,18.16,11.99,17.91,4.91-.29,9.87-7.07,9.89-21.58.04-27.67-11.87-127.59-11.99-128.6l4.96-.59c.49,4.12,12.07,101.23,12.03,129.2-.03,18.97-7.88,26.17-14.59,26.56-.2.01-.4.02-.6.02Z"/>
                <path class="cls-12" d="M1038.05,622.9c-10.25,0-21.43-7.76-24.13-23.41-.6-3.45.73-10.15,2.94-21.25,4.5-22.65,12.03-60.57,9.26-105.6l4.99-.31c2.8,45.67-4.8,83.99-9.35,106.88-1.87,9.44-3.35,16.89-2.91,19.43,2.34,13.55,12.08,19.93,20.47,19.2,7.21-.61,15.63-7,15.66-22.99.06-29.36-10.95-126.18-11.06-127.16l4.97-.57c.46,3.99,11.16,98.09,11.1,127.73-.04,19.38-10.93,27.17-20.24,27.96-.56.05-1.12.07-1.69.07Z"/>
                <path class="cls-12" d="M974.06,602.31c-4.88,0-9.67-1.38-13.76-4.11-5.83-3.9-15.32-13.98-13.29-37.66.47-5.48,2.25-11.43,4.32-18.31,4.65-15.5,11.02-36.74,7.41-69.98l4.97-.54c3.72,34.25-2.82,56.04-7.59,71.95-1.99,6.62-3.7,12.34-4.12,17.3-1.34,15.65,2.6,27.4,11.09,33.07,6.16,4.12,14.01,4.41,21,.8,8.46-4.38,13.69-13.63,13.98-24.75.68-26.13-24.24-101.13-24.49-101.88l4.74-1.58c1.04,3.11,25.46,76.59,24.75,103.6-.34,12.97-6.58,23.83-16.68,29.06-3.91,2.03-8.15,3.03-12.31,3.03Z"/>
                <rect class="cls-1" x="893.38" y="375.29" width="8.29" height="14.42"/>
                <rect class="cls-1" x="1032.27" y="389.71" width="8.29" height="21.72"/>
                <g>
                  <path class="cls-34" d="M851.46,633.21h0l-4.62-25.6-129-31.2-.76,39.54h.02c-.19,2.48,2.65,4.85,8.58,6.5l74.1,20.67c11.66,3.25,30.81,2.51,42.76-1.66h0c6.95-2.43,9.93-5.48,8.92-8.25Z"/>
                  <path class="cls-31" d="M796.41,617.54l-72.83-32.8c-14.19-7.55.51-13.07.51-13.07,11.62-4.06,30.23-4.78,41.56-1.62l72.83,32.8c11.34,3.16,11.11,9.01-.51,13.07h0c-11.62,4.06-30.23,4.78-41.56,1.62Z"/>
                </g>
                <g>
                  <path class="cls-6" d="M753.84,463.08l-2.01-16.04c-.22-1.79-1.74-3.13-3.55-3.13h-20.41c-1.65,0-3.09,1.13-3.47,2.73l-2.24,9.26c-.39,1.6-1.82,2.73-3.47,2.73h-25.79c-1.63,0-3.06,1.11-3.46,2.69l-.58,2.27c-.29,1.13.58,2.23,1.74,2.21l61.52-.77c1.05-.01,1.85-.94,1.72-1.98Z"/>
                  <path class="cls-31" d="M718.71,458.33h-38.22c-1.31,0-2.46-.88-2.8-2.15l-1.28-4.75c-.5-1.84.89-3.66,2.8-3.66h40.64c1.88,0,3.26,1.76,2.82,3.59l-1.15,4.75c-.31,1.3-1.48,2.22-2.82,2.22Z"/>
                  <path class="cls-31" d="M733.59,445.15h-3.72v-28.34c0-.49-.17-.97-.48-1.36l-.52-.65c-.39-.49-.96-.78-1.58-.81-.63-.03-1.22.2-1.66.65l-.72.73c-.32.33-.53.76-.6,1.22l-.72,5.13-3.69-.52.72-5.13c.18-1.26.74-2.4,1.62-3.3l.72-.73c1.18-1.2,2.83-1.84,4.5-1.76,1.68.08,3.25.89,4.3,2.2l.52.65c.83,1.04,1.29,2.35,1.29,3.68v28.34Z"/>
                  <path class="cls-31" d="M753.25,465.03h-25.33c-.48,0-.88.38-.89.86l-.46,13.53h28.47l-.89-13.56c-.03-.47-.42-.84-.89-.84Z"/>
                </g>
                <path class="cls-31" d="M908.18,394.76c0,3.6-2.92,6.51-6.51,6.51h-62.26c-31.19,0-56.55,25.37-56.55,56.55v35.42c0,3.6-2.92,6.51-6.51,6.51-.1,0-.2,0-.31-.02-3.46-.15-6.21-3-6.21-6.49v-35.42c0-38.36,31.21-69.58,69.58-69.58h62.26c3.54,0,6.41,2.83,6.5,6.34,0,.06,0,.12,0,.18Z"/>
                <path class="cls-6" d="M908.18,394.76c0,3.6-2.92,6.51-6.51,6.51h-62.26c-31.19,0-56.55,25.37-56.55,56.55v35.42c0,3.6-2.92,6.51-6.51,6.51-.1,0-.2,0-.31-.02,0-.06,0-.12,0-.18v-35.42c0-38.36,31.22-69.58,69.58-69.58h62.26c.1,0,.2,0,.31.02,0,.06,0,.12,0,.18Z"/>
                <path class="cls-31" d="M1052.12,386.27l-.36,2.88c-.45,3.49-3.21,6.1-6.55,6.5-.6.07-1.22.08-1.84,0l-150.5-19.05c-3.74-.47-6.48-3.63-6.54-7.3-.02-.35,0-.72.05-1.09l.36-2.88c.52-4.11,4.27-7.02,8.38-6.5l150.5,19.05c4.11.52,7.02,4.28,6.5,8.39Z"/>
                <path class="cls-6" d="M1045.86,390.45l-.66,5.2c-.6.07-1.22.08-1.84,0l-150.5-19.05c-3.74-.47-6.48-3.63-6.54-7.3.73-2.17,2.89-3.6,5.25-3.3l150.06,19c2.68.33,4.58,2.78,4.24,5.46Z"/>
                <g>
                  <path class="cls-6" d="M1060.56,471.13l13.59-5.74c7.15-3.02,12.17-9.57,12.17-17.33v-31.27c0-2.76-1.96-4.83-4.34-5.34-1.33.12-3.41,1-4.67,1.71-16.95,9.71-25.34,19.65-25.58,46.59,0,.81.17,1.62.51,2.35,1.15,2.48,1.86,3.86,2.55,5.12,1.3,2.36,5.24,4.12,5.77,3.9Z"/>
                  <path class="cls-31" d="M1052.37,461h-162s-5.16-20.59,25.55-45.96c2.82-2.33,6.38-3.61,10.05-3.61h156c-26.57,13.18-27.42,26.68-29.6,49.57Z"/>
                  <path class="cls-34" d="M1060.56,471.13s-107.12.01-161.05.19c-2.31,0-4.43-1.29-5.5-3.34l-3.64-6.98h162c2.2,4.51,3.57,9.42,8.19,10.13Z"/>
                </g>
                <path class="cls-1" d="M1014.94,426.41c.14,4.84-15.99,9.23-36.03,9.81-20.04.57-36.39-2.89-36.53-7.74-.14-4.84,15.99-9.23,36.03-9.81,20.04-.57,36.39,2.89,36.53,7.74Z"/>
                <path class="cls-21" d="M970.7,426.84c.05,1.77-3.76,3.31-8.5,3.45-4.75.14-8.63-1.19-8.68-2.96-.05-1.77,3.76-3.31,8.5-3.45,4.75-.14,8.63,1.19,8.68,2.96Z"/>
                <path class="cls-33" d="M967.48,423.2c.02.68-1.66,1.28-3.75,1.34-2.09.06-3.8-.44-3.82-1.12-.02-.68,1.66-1.28,3.75-1.34,2.09-.06,3.8.44,3.82,1.12Z"/>
                <path class="cls-33" d="M965.42,430.89c.02.68-1.66,1.28-3.75,1.34-2.09.06-3.8-.44-3.82-1.12-.02-.68,1.66-1.28,3.75-1.34,2.09-.06,3.8.44,3.82,1.12Z"/>
                <path class="cls-33" d="M974,427.16c.02.68-1.66,1.28-3.75,1.34-2.09.06-3.8-.44-3.82-1.12-.02-.68,1.66-1.28,3.75-1.34,2.09-.06,3.8.44,3.82,1.12Z"/>
                <path class="cls-33" d="M958.68,426.77c.02.68-1.66,1.28-3.75,1.34-2.09.06-3.8-.44-3.82-1.12-.02-.68,1.66-1.28,3.75-1.34,2.09-.06,3.8.44,3.82,1.12Z"/>
                <path class="cls-33" d="M986.6,423.27c.02.68-1.66,1.28-3.75,1.34-2.09.06-3.8-.44-3.82-1.12-.02-.68,1.66-1.28,3.75-1.34,2.09-.06,3.8.44,3.82,1.12Z"/>
                <path class="cls-33" d="M986.74,428.33c.02.68-1.66,1.28-3.75,1.34-2.09.06-3.8-.44-3.82-1.12-.02-.68,1.66-1.28,3.75-1.34,2.09-.06,3.8.44,3.82,1.12Z"/>
                <path class="cls-33" d="M996.29,423.38c.02.68-1.66,1.28-3.75,1.34-2.09.06-3.8-.44-3.82-1.12-.02-.68,1.66-1.28,3.75-1.34,2.09-.06,3.8.44,3.82,1.12Z"/>
                <path class="cls-33" d="M996.44,428.45c.02.68-1.66,1.28-3.75,1.34-2.09.06-3.8-.44-3.82-1.12-.02-.68,1.66-1.28,3.75-1.34,2.09-.06,3.8.44,3.82,1.12Z"/>
                <path class="cls-33" d="M1005.99,423.32c.02.68-1.66,1.28-3.75,1.34-2.09.06-3.8-.44-3.82-1.12-.02-.68,1.66-1.28,3.75-1.34,2.09-.06,3.8.44,3.82,1.12Z"/>
                <path class="cls-33" d="M1006.13,428.39c.02.68-1.66,1.28-3.75,1.34-2.09.06-3.8-.44-3.82-1.12-.02-.68,1.66-1.28,3.75-1.34,2.09-.06,3.8.44,3.82,1.12Z"/>
                <g>
                  <g>
                    <path class="cls-12" d="M927.97,471.08l-4.46-10.08,2.15-1.13c1.21-.64,2.71-2.03,3.43-3.61.52-1.15.08-3.27-.66-4.29-.01-.02-.03-.04-.04-.05-.91-1.24-3.68-1.91-5.15-1.43,0,0-3.14.55-4.6,3.11-2,3.51-.71,7.03-.71,7.03l4.45,10.52,5.59-.06Z"/>
                    <g>
                      <path class="cls-45" d="M922.2,452.26c-.9.3-1.81.35-2.61.2-1.26-.24-2.27-1-2.64-2.1l8.32-2.76c.3.9.12,1.86-.44,2.7-.54.86-1.47,1.59-2.63,1.97Z"/>
                      <path class="cls-45" d="M925.23,475.22c.04.1.07.2.12.29h-.03s-.1-.29-.1-.29Z"/>
                      <path class="cls-6" d="M933.63,472.76c-.02-.09-.04-.18-.06-.26,0-.02,0-.04-.02-.05,0-.02,0-.03-.02-.04q-.19-.54-.51-1.35c-2.49.02-2.98.02-5.05.02l-4.35-10.12,2.15-1.13c.91-.48,1.97-1.37,2.75-2.46l-2.27-6.83-.98-2.95c.3.9.12,1.86-.44,2.7-.54.86-1.47,1.59-2.63,1.97-.9.3-1.81.35-2.61.2-1.26-.24-2.27-1-2.64-2.1l1.36,4.09,5.53,16.6,1.39,4.18c.04.1.07.2.12.29.74,1.61,2.95,2.33,5.13,1.61,2.17-.72,3.51-2.63,3.15-4.37Z"/>
                      <path class="cls-45" d="M933.65,472.75h-.02c-.02-.08-.04-.17-.06-.25l.08.25Z"/>
                      <path class="cls-50" d="M924.83,450.29c-.54.86-1.47,1.59-2.63,1.97-.9.3-1.81.35-2.61.2-1.26-.24-2.27-1-2.64-2.1-.61-1.81.77-3.9,3.06-4.67,2.3-.77,4.65.09,5.26,1.91.3.9.12,1.86-.44,2.7Z"/>
                    </g>
                  </g>
                  <g>
                    <rect class="cls-1" x="918.3" y="441.5" width="3.1" height="7.42" transform="translate(-93.54 313.41) rotate(-18.42)"/>
                    <path class="cls-50" d="M920.15,441.2c.17.51-.35,1.14-1.16,1.41-.81.27-1.61.08-1.78-.43-.17-.51.35-1.14,1.16-1.41.81-.27,1.61-.08,1.78.43Z"/>
                    <path class="cls-1" d="M922.47,448.16c.17.51-.35,1.14-1.16,1.41-.81.27-1.61.08-1.78-.43-.17-.51.35-1.14,1.16-1.41.81-.27,1.61-.08,1.78.43Z"/>
                  </g>
                </g>
                <g>
                  <g>
                    <path class="cls-12" d="M958.49,471.08l-4.46-10.08,2.15-1.13c1.21-.64,2.71-2.03,3.43-3.61.52-1.15.08-3.27-.66-4.29-.01-.02-.03-.04-.04-.05-.91-1.24-3.68-1.91-5.15-1.43,0,0-3.14.55-4.6,3.11-2,3.51-.71,7.03-.71,7.03l4.45,10.52,5.59-.06Z"/>
                    <g>
                      <path class="cls-45" d="M952.72,452.26c-.9.3-1.81.35-2.61.2-1.26-.24-2.27-1-2.64-2.1l8.32-2.76c.3.9.12,1.86-.44,2.7-.54.86-1.47,1.59-2.63,1.97Z"/>
                      <path class="cls-45" d="M955.75,475.22c.04.1.07.2.12.29h-.03s-.1-.29-.1-.29Z"/>
                      <path class="cls-6" d="M964.15,472.76c-.02-.09-.04-.18-.06-.26,0-.02,0-.04-.02-.05,0-.02,0-.03-.02-.04q-.19-.54-.51-1.35c-2.49.02-2.98.02-5.05.02l-4.35-10.12,2.15-1.13c.91-.48,1.97-1.37,2.75-2.46l-2.27-6.83-.98-2.95c.3.9.12,1.86-.44,2.7-.54.86-1.47,1.59-2.63,1.97-.9.3-1.81.35-2.61.2-1.26-.24-2.27-1-2.64-2.1l1.36,4.09,5.53,16.6,1.39,4.18c.04.1.07.2.12.29.74,1.61,2.95,2.33,5.13,1.61,2.18-.72,3.51-2.63,3.15-4.37Z"/>
                      <path class="cls-45" d="M964.17,472.75h-.02c-.02-.08-.04-.17-.06-.25l.08.25Z"/>
                      <path class="cls-50" d="M955.35,450.29c-.54.86-1.47,1.59-2.63,1.97-.9.3-1.81.35-2.61.2-1.26-.24-2.27-1-2.64-2.1-.61-1.81.77-3.9,3.06-4.67,2.3-.77,4.65.09,5.26,1.91.3.9.12,1.86-.44,2.7Z"/>
                    </g>
                  </g>
                  <g>
                    <rect class="cls-1" x="948.6" y="441.5" width="3.1" height="7.42" transform="translate(-91.99 322.99) rotate(-18.42)"/>
                    <path class="cls-50" d="M950.45,441.2c.17.51-.35,1.14-1.16,1.41-.81.27-1.61.08-1.78-.43-.17-.51.35-1.14,1.16-1.41.81-.27,1.61-.08,1.78.43Z"/>
                    <path class="cls-1" d="M952.76,448.16c.17.51-.35,1.14-1.16,1.41-.81.27-1.61.08-1.78-.43-.17-.51.35-1.14,1.16-1.41.81-.27,1.61-.08,1.78.43Z"/>
                  </g>
                </g>
                <g>
                  <g>
                    <path class="cls-12" d="M992.07,471.08l-4.46-10.08,2.15-1.13c1.21-.64,2.71-2.03,3.43-3.61.52-1.15.08-3.27-.66-4.29-.01-.02-.03-.04-.04-.05-.91-1.24-3.68-1.91-5.15-1.43,0,0-3.14.55-4.6,3.11-2,3.51-.71,7.03-.71,7.03l4.45,10.52,5.59-.06Z"/>
                    <g>
                      <path class="cls-45" d="M986.3,452.26c-.9.3-1.81.35-2.61.2-1.26-.24-2.27-1-2.64-2.1l8.32-2.76c.3.9.12,1.86-.44,2.7-.54.86-1.47,1.59-2.63,1.97Z"/>
                      <path class="cls-45" d="M989.33,475.22c.04.1.07.2.12.29h-.03s-.1-.29-.1-.29Z"/>
                      <path class="cls-6" d="M997.73,472.76c-.02-.09-.04-.18-.06-.26,0-.02,0-.04-.02-.05,0-.02,0-.03-.02-.04q-.19-.54-.51-1.35c-2.49.02-2.98.02-5.05.02l-4.35-10.12,2.15-1.13c.91-.48,1.97-1.37,2.75-2.46l-2.27-6.83-.98-2.95c.3.9.12,1.86-.44,2.7-.54.86-1.47,1.59-2.63,1.97-.9.3-1.81.35-2.61.2-1.26-.24-2.27-1-2.64-2.1l1.36,4.09,5.53,16.6,1.39,4.18c.04.1.07.2.12.29.74,1.61,2.95,2.33,5.13,1.61,2.18-.72,3.51-2.63,3.15-4.37Z"/>
                      <path class="cls-45" d="M997.75,472.75h-.02c-.02-.08-.04-.17-.06-.25l.08.25Z"/>
                      <path class="cls-50" d="M988.93,450.29c-.54.86-1.47,1.59-2.63,1.97-.9.3-1.81.35-2.61.2-1.26-.24-2.27-1-2.64-2.1-.61-1.81.77-3.9,3.06-4.67,2.3-.77,4.65.09,5.26,1.91.3.9.12,1.86-.44,2.7Z"/>
                    </g>
                  </g>
                  <g>
                    <path class="cls-1" d="M986.74,448.25h.01s-2.34-7.05-2.34-7.05l-2.94.98,2.34,7.04h.01c.22.44.97.6,1.74.35.77-.26,1.27-.83,1.18-1.32Z"/>
                    <path class="cls-50" d="M984.41,441.2c.17.51-.35,1.14-1.16,1.41-.81.27-1.61.08-1.78-.43-.17-.51.35-1.14,1.16-1.41.81-.27,1.61-.08,1.78.43Z"/>
                  </g>
                </g>
                <g>
                  <g>
                    <path class="cls-43" d="M1026.55,471.08l-4.46-10.08,2.15-1.13c1.21-.64,2.71-2.03,3.43-3.61.52-1.15.08-3.27-.66-4.29-.01-.02-.03-.04-.04-.05-.91-1.24-3.68-1.91-5.15-1.43,0,0-3.14.55-4.6,3.11-2,3.51-.71,7.03-.71,7.03l4.45,10.52,5.59-.06Z"/>
                    <g>
                      <path class="cls-45" d="M1020.78,452.26c-.9.3-1.81.35-2.61.2-1.26-.24-2.27-1-2.64-2.1l8.32-2.76c.3.9.12,1.86-.44,2.7-.54.86-1.47,1.59-2.63,1.97Z"/>
                      <path class="cls-45" d="M1023.81,475.22c.04.1.07.2.12.29h-.03s-.1-.29-.1-.29Z"/>
                      <path class="cls-6" d="M1032.21,472.76c-.02-.09-.04-.18-.06-.26,0-.02,0-.04-.02-.05,0-.02,0-.03-.02-.04q-.19-.54-.51-1.35c-2.49.02-2.98.02-5.05.02l-4.35-10.12,2.15-1.13c.91-.48,1.97-1.37,2.75-2.46l-2.27-6.83-.98-2.95c.3.9.12,1.86-.44,2.7-.54.86-1.47,1.59-2.63,1.97-.9.3-1.81.35-2.61.2-1.26-.24-2.27-1-2.64-2.1l1.36,4.09,5.53,16.6,1.39,4.18c.04.1.07.2.12.29.74,1.61,2.95,2.33,5.13,1.61,2.18-.72,3.51-2.63,3.15-4.37Z"/>
                      <path class="cls-45" d="M1032.23,472.75h-.02c-.02-.08-.04-.17-.06-.25l.08.25Z"/>
                      <path class="cls-12" d="M1023.41,450.29c-.54.86-1.47,1.59-2.63,1.97-.9.3-1.81.35-2.61.2-1.26-.24-2.02-1.12-2.64-2.1-.42-.67-3.14-4.55-6.26-8.66-4.77-4.01-10.15-5.41-9.1-6.38,1.02-.95,4.63,1.95,10.53,4.32,5.69,2.99,12.84,7.03,13.15,7.96.3.9.12,1.86-.44,2.7Z"/>
                    </g>
                  </g>
                  <path class="cls-33" d="M1001.28,435.53c.02.26-.24.48-.58.51-.34.03-.64-.16-.66-.41-.02-.26.24-.48.58-.51.34-.03.64.16.66.41Z"/>
                </g>
                <g>
                  <polygon class="cls-31" points="879.56 197.02 878 207.41 610.38 174.18 611.57 164.76 879.56 197.02"/>
                  <polygon class="cls-6" points="878.91 202.21 877.97 207.71 610.38 174.18 611.01 169.18 878.91 202.21"/>
                  <path class="cls-6" d="M879.81,200.77c-2.57,0-4.65,2.08-4.65,4.65v12.85c0,10.05-8.17,18.22-18.22,18.22h-18.3l-43.69-.92h-.1c-18.49,0-33.54,15.04-33.54,33.53v54.19c0,.45.08.87.2,1.28v170.18h8.9v-170.18c.12-.41.2-.83.2-1.28v-54.19c0-13.35,10.85-24.21,24.18-24.23l38.57.81c.32.07.64.11.98.11h22.58c15.18,0,27.52-12.35,27.52-27.52v-12.85c0-2.57-2.08-4.65-4.65-4.65Z"/>
                  <path class="cls-31" d="M877.49,197.52c-2.57,0-4.65,2.08-4.65,4.65v12.85c0,10.05-8.17,18.22-18.22,18.22h-18.3l-43.69-.92h-.1c-18.49,0-33.54,15.04-33.54,33.53v54.19c0,.45.08.87.2,1.28v170.18h8.9v-170.18c.12-.41.2-.83.2-1.28v-54.19c0-13.35,10.85-24.21,24.18-24.23l38.57.81c.32.07.64.11.98.11h22.58c15.18,0,27.52-12.35,27.52-27.52v-12.85c0-2.57-2.08-4.65-4.65-4.65Z"/>
                  <path class="cls-6" d="M887.12,201.04c0,3.91-3.17,7.08-7.08,7.08s-7.08-3.17-7.08-7.08,3.17-7.08,7.08-7.08,7.08,3.17,7.08,7.08Z"/>
                  <path class="cls-31" d="M885.12,201.04c0,3.91-3.17,7.08-7.08,7.08s-7.08-3.17-7.08-7.08,3.17-7.08,7.08-7.08,7.08,3.17,7.08,7.08Z"/>
                  <g>
                    <path class="cls-31" d="M609.2,221.91c-2.24,4.16-15.06,1.6-28.65-5.7-13.59-7.31-22.8-16.59-20.56-20.76,1.73-3.21,9.78-2.42,19.62,1.48,2.89,1.15,5.95,2.57,9.04,4.23,2.98,1.6,5.76,3.31,8.24,5.03,8.84,6.11,14.08,12.49,12.32,15.73Z"/>
                    <path class="cls-18" d="M601.06,217.53c-1.5,2.78-10.08,1.07-19.17-3.82-9.09-4.89-15.26-11.1-13.76-13.89,1.16-2.15,6.54-1.62,13.13.99,1.94.77,3.98,1.72,6.05,2.83,2,1.07,3.85,2.21,5.51,3.36,5.91,4.09,9.42,8.36,8.25,10.53Z"/>
                  </g>
                  <path class="cls-6" d="M619.9,169.12c0,3.54-2.87,6.41-6.41,6.41s-6.41-2.87-6.41-6.41,2.87-6.41,6.41-6.41,6.41,2.87,6.41,6.41Z"/>
                  <circle class="cls-31" cx="612.64" cy="169.12" r="6.41"/>
                  <path class="cls-32" d="M600.69,206.28c-.41,0-.82-.13-1.16-.4-.82-.64-.96-1.83-.31-2.64l15.93-20.22c.91-1.16,1.17-2.62.7-4.02-.47-1.4-1.55-2.41-2.97-2.79l-15.01-3.98c-1.57-.42-3.22.08-4.3,1.29l-16.29,18.18c-.69.77-1.88.84-2.66.15-.77-.69-.84-1.88-.15-2.66l16.29-18.18c2.03-2.27,5.12-3.19,8.07-2.41l15.01,3.98c2.63.7,4.72,2.66,5.58,5.24.86,2.58.37,5.4-1.31,7.54l-15.93,20.22c-.37.47-.92.72-1.48.72Z"/>
                  <path class="cls-6" d="M619.41,177.81c-.86-2.58-2.95-4.54-5.58-5.24l-15.01-3.98c-2.94-.78-6.04.14-8.07,2.41l-8.08,9.02c.63-.05,1.25-.11,1.87-.11,1.07-.02,2.13.02,3.18.12l5.83-6.51c1.08-1.21,2.73-1.7,4.3-1.29l15.01,3.98c1.42.38,2.51,1.4,2.97,2.79.47,1.4.21,2.86-.7,4.02l-7.06,8.95-8.87,11.26c-.64.82-.5,2,.31,2.64.34.27.76.4,1.16.4.56,0,1.11-.25,1.48-.72l7.84-9.95,8.09-10.27c1.69-2.14,2.18-4.96,1.31-7.54Z"/>
                  <g>
                    <path class="cls-1" d="M608.09,191.98c-2.31-3.33-5.32-6.11-8.78-8.16,1.93,2.43,4.63,6.29,6.56,10.98l2.22-2.82Z"/>
                    <path class="cls-1" d="M612.96,204.98c-.21-1.94-1.25-5.51-2.96-9.36l-2.7,3.43c1.27,4.8,1.46,10.17-.7,15.59,2.48,2.96,3.52,5.55,2.59,7.27-.01.03-.03.04-.05.06,0,.02,0,.03-.01.05.04.05.08.08.13.12,2.94-5,4.35-10.95,3.7-17.16Z"/>
                    <path class="cls-6" d="M607.31,199.05l-5.14,6.52c-.38.47-.92.72-1.49.72-.4,0-.81-.13-1.16-.41-.17-.14-.32-.31-.43-.48-.4-.65-.38-1.52.12-2.16l6.65-8.45c-1.93-4.69-4.63-8.55-6.56-10.98-1.82-1.08-3.77-1.97-5.82-2.62-.84-.27-1.7-.49-2.59-.68-1.04-.23-2.1-.39-3.18-.49-1.04-.09-2.1-.13-3.17-.11-.62,0-1.24.06-1.88.11-.18.01-.37.01-.55.03-9.91,1.06-18.06,7.16-22.18,15.46h.01s.02-.02.03-.03c0-.01,0-.03.01-.04.97-1.78,3.86-2.33,7.92-1.8,3.28.42,7.3,1.53,11.69,3.28.56.23,1.13.45,1.69.7h.03c2.37,1.02,4.84,2.2,7.32,3.53,2.98,1.6,5.75,3.3,8.23,5.02,4.17,2.89,7.52,5.82,9.73,8.46,2.16-5.42,1.98-10.79.7-15.59Z"/>
                  </g>
                </g>
                <rect class="cls-34" x="741.54" y="284.12" width="29.42" height="13.64"/>
                <g>
                  <path class="cls-31" d="M751.39,333.07h-75.29c-1.62,0-3.02-1.15-3.34-2.74l-12.67-63.83c-.42-2.1,1.19-4.06,3.34-4.06h75.29c1.62,0,3.02,1.15,3.34,2.74l12.67,63.83c.42,2.1-1.19,4.06-3.34,4.06Z"/>
                  <path class="cls-47" d="M741.5,327.93h-60.84c-1.63,0-3.03-1.16-3.34-2.76l-10.25-53.54c-.4-2.1,1.21-4.04,3.34-4.04h60.84c1.63,0,3.03,1.16,3.34,2.76l10.25,53.54c.4,2.1-1.21,4.04-3.34,4.04Z"/>
                  <path class="cls-36" d="M741.5,327.93h-54.79c10.72-18.11,23.81-43.81,32.24-60.34h12.3c1.63,0,3.03,1.16,3.34,2.76l10.25,53.54c.4,2.1-1.21,4.04-3.34,4.04Z"/>
                </g>
                <path class="cls-31" d="M796.27,582.98h-71.33v-101.82c0-2.87,2.33-5.2,5.2-5.2h61.25c2.69,0,4.87,2.18,4.87,4.87v102.15Z"/>
              </g>
              <g>
                <path class="cls-1" d="M824.23,664.81c0-3.57,1.12-11.11-1.9-22.64-16.73-9.28-62.67-3.21-108.33-3.21-55.81,0-102.93-6.6-110.23,6.01-.66,1.15,0,18.65,0,19.83,0,14.28,49.35,25.85,110.23,25.85s110.23-11.57,110.23-25.85Z"/>
                <path class="cls-31" d="M822.96,644.98c0-14.28-48.08-25.85-108.96-25.85s-110.23,11.57-110.23,25.85,49.35,25.85,110.23,25.85,108.96-11.57,108.96-25.85Z"/>
                <path class="cls-1" d="M770.75,640.44c0-1.26.58-77.09-.98-81.15-8.62-3.27-32.27-1.13-55.79-1.13-28.74,0-53.01-2.33-56.77,2.12-.34.4,0,79.75,0,80.16,0,5.03,25.39,11.12,56.74,11.12s56.79-6.09,56.79-11.12Z"/>
                <g>
                  <rect class="cls-1" x="575.24" y="493.06" width="25.78" height="75.91" transform="translate(-66.58 977.38) rotate(-76.36)"/>
                  <path class="cls-5" d="M906.15,564.44l-163.33-20.07c-.76-.08-1.54-.06-2.3.05l-144.48,21.48c-4.53.67-7.52,4.53-6.55,8.46l1.54,6.26c.94,3.8,5.21,6.19,9.55,5.35l143.74-22.68,159.8,15.13c4.4.48,8.43-2.27,9-6.13h0c.57-3.87-2.56-7.39-6.98-7.85Z"/>
                  <path class="cls-9" d="M405.2,470.6l34.06-24.45,31.42,22.97-30.29,35.59c-2.07,2.43-5.61,2.96-8.3,1.25l-18.47-11.72-9.24-14.73c-1.77-2.82-1.85-6.93.81-8.92Z"/>
                  <polygon class="cls-9" points="447.05 509.3 481.04 467.91 609.01 505.89 570.07 565.24 505.72 545.77 474.09 531.01 447.05 509.3"/>
                  <path class="cls-9" d="M590.13,565.23l43.3-54.16,113.93-3.27,116.49,18.66,48.2,36.79-46.86-2.45-119.61-14.7s-92.12,17.13-101.33,17.58c-9.21.45-54.13,1.56-54.13,1.56Z"/>
                  <path class="cls-54" d="M419.71,490.38c9.81,9.51,25.04,10.36,20.25,15.3-4.79,4.94-16.62,1.24-26.44-8.26-9.81-9.51-13.89-21.22-9.1-26.16,4.79-4.94,5.47,9.62,15.29,19.13Z"/>
                  <path class="cls-54" d="M511.65,538.69c38.17,1.53,62.47,19.6,58.42,26.55-4.05,6.94-34.87.05-68.84-15.4-33.97-15.45-58.23-33.6-54.18-40.54,4.05-6.94,22.79,27.72,64.6,29.4Z"/>
                  <path class="cls-54" d="M906.15,559.88l-163.33-20.07c-.76-.08-1.54-.06-2.3.05l-144.48,21.48c-4.53.67-7.52,4.53-6.55,8.46l1.54,6.26c.94,3.8,5.21,6.19,9.55,5.35l143.74-22.68,159.8,15.13c4.4.48,8.43-2.27,9-6.13h0c.57-3.87-2.56-7.39-6.98-7.85Z"/>
                </g>
                <g>
                  <path class="cls-48" d="M855.64,528.22c.75.51,25.75-27.58,19.21-37.84-1.76-2.76-20.48,19.54-26.05,18.28-46.28-10.53-69.92-18.61-83.28-24.21-11.36-4.77-15.26-7.74-19.3-8.87-.34-.1-.68-.18-1.04-.24-6.13-1.21-21.93-2.69-42-3.65h-.01c-.98-.05-1.94-.1-2.94-.14-15.71-.71-33.8-1.08-51.82-.78-21.66.36-35.23,8.37-50.49,21.11,1.95,2.18-21.42,6.26,4.78,18.93,40.25,19.46,66.08,6.98,98.8,2.38,1.81-.25,3.64-.58,5.47-.97h.01c7.62-1.58,15.37-4.05,22.63-5.8,10.91-2.64,20.73-3.66,27.38,2.4,25.41,23.09,82.35,8.28,98.64,19.4Z"/>
                  <g>
                    <path class="cls-10" d="M851.23,526.08c2.77,1.49,5.09,2.75,7.34,3.44,5.32-5.56,6.73-14.61,8.47-16.92,1.78-2.36,4.05-4.3,6.12-6.42,3.79-3.87,7.01-8.57,7.86-13.91.7-4.33-.2-8.78-.04-13.15-.82-.29-1.51-.35-2.15.34-2.79,3.03-5.96,10.1-11,13.63-6.55,4.59-1.28,4.16-.31,10.42-5.92,9.76-14.9,21.54-16.29,22.57Z"/>
                    <path class="cls-2" d="M873.15,506.18c-2.07,2.12-4.34,4.05-6.12,6.42-1.74,2.31-2.81,10.71-8.47,16.92,1.78.55,4.89,1.57,6.79,1.35,3.86-.43,6.08-9.85,7.03-14.07,1.94-8.64,12.52-13.9,10.06-37.09-.54-.22-1.02-.44-1.47-.6-.15,4.37-.52,8.3-1.22,12.63-.86,5.35-2.81,10.56-6.6,14.43Z"/>
                  </g>
                  <path class="cls-23" d="M706.97,512.22h.01c7.62-1.58,15.37-4.05,22.63-5.8-6.62-4.9-14.38-8.13-19.55-15.01-3.51-4.67-8.17-13.87-6.89-19.72-.98-.05-1.94-.1-2.94-.14-1.21,1.19-2.45,2.65-3.48,3.56-5.52,4.88-6.6,8.91-5.87,16.89,1.01,11,5.64,18.22,16.09,20.22Z"/>
                </g>
                <g>
                  <path class="cls-26" d="M865.13,539.74c-2.1,2.81-3.65,4.53-3.84,4.42-16.98-10.03-72.83,8.47-99.7-12.92-7.02-5.61-16.77-3.94-27.47-.6-7.13,2.21-14.7,5.2-22.2,7.27h-.02c-1.8.51-3.6.96-5.4,1.33-1.27.26-2.55.53-3.82.8-30.94,6.54-60.34,13.78-94.92,3.27-27.85-8.46-11.7-26.99-13.79-29.05,14.38-13.71,35.2-12.11,56.79-13.89,17.96-1.48,36.03-2.29,51.76-2.61,1-.03,1.96-.04,2.94-.05h0c20.1-.35,35.96.09,42.16.89.36.05.71.1,1.05.18,4.1.87,8.2,3.57,19.85,7.59,13.69,4.72,37.06,9.24,83.92,16.73,5.64.89,23.5-21.05,25.55-17.95,5.05,7.62-6.48,26.09-12.86,34.59Z"/>
                  <path class="cls-48" d="M865.13,539.74c-2.1,2.81-3.65,4.53-3.84,4.42-16.98-10.03-72.83,8.47-99.7-12.92-7.02-5.61-16.77-3.94-27.47-.6-7.13,2.21-14.7,5.2-22.2,7.27h-.02c-1.8.51-3.6.96-5.4,1.33-1.27.26-2.55.53-3.82.8-.52-.04-.79-.06-.79-.06-10.56-1.3-5.63-10.29-7.36-21.2-1.26-7.91-.44-12,4.75-17.23.97-.99,2.11-2.52,3.24-3.79,1-.03,1.96-.04,2.94-.05-1.94,12.84,10.33,30.35,42.9,26.51,11.54-1.36,25.93,9.14,39.66,10.91,29.48,3.79,59.53,1.87,77.12,4.61Z"/>
                  <g>
                    <path class="cls-46" d="M858.19,543.3c2.94,1.12,5.41,2.06,7.73,2.45,4.54-6.21,9.61-22.69,11.39-25.06,3.24-4.34,5.82-9.42,5.96-14.83.12-4.39-1.35-8.67-1.78-13.03-.85-.18-1.54-.15-2.08.62-2.37,3.38-4.58,10.8-9.1,14.96-5.89,5.41-.73,4.29,1.06,10.37-4.59,10.45-11.94,23.32-13.17,24.52Z"/>
                    <path class="cls-14" d="M877.3,520.69c-1.77,2.37-2.45,5.78-3.9,8.36-1.42,2.52-2.7,9.79-7.49,16.7,1.84.31,5.05.91,6.91.45,3.77-.94,4.73-10.56,5.12-14.88.79-8.82,10.58-15.43,5.08-38.09-.56-.14-1.07-.3-1.53-.4.43,4.35.57,8.3.45,12.68-.15,5.41-1.4,10.84-4.64,15.17Z"/>
                  </g>
                </g>
                <path class="cls-19" d="M484.53,516.55c21.2-3.53,29.58-44.95,33.6-58.96,2.86-9.99-14.19-24.67-38.93-9.4-7.95,4.9,3.03-17.13-22.4-29.76-2.88-1.43-11.11-4.36-13.38-3.89-3.16.65-5.46,1.87-7.11,3.13-2.73,2.09-3.65,4.31-3.65,4.31-2.31-1.15-4.53-1.12-6.53-.31-6.5,2.6-11.1,13.27-11.71,18.38-1.27,10.53.25,21.25,4.03,29.15,3.52,7.4,9.02,12.33,16.01,12.31,8.85-.02.7,23.28,20.1,22.61,9.94-.35,11.23,15.55,29.98,12.42Z"/>
                <path class="cls-46" d="M577.01,538.89s4.66,5.75,11.84,8.89c11.05,4.83,28.09,10.54,43.41,8.44,16.81-2.3,55.59-7.91,71.75-9.39,4.5-9.08,6.07-38.9.57-49.43-5.76-11.02-2.53-21.98-1.68-26.85-36.63.07-75.73-4.08-124.89,13.27,6.69,24.34-1.33,49.36-1.01,55.07Z"/>
                <path class="cls-2" d="M573.71,536.65c4.25,3.7,8.05,8.45,14.32,11.23,2.92-4.77,5.6-9.58,8.09-14.33,15.49-29.58,23.33-59.08,23.59-60.41-4.5-.84-12.42-.47-17.6-.37-37.65.84-49.32-27.13-56.92-31.32-5.9-3.25-44.15.81-47.27,5.71-12.22,19.18-20.75,27.31-16.2,55.7,1.38,8.61,9.92,9.37,17.79,10.13,1.15.11,2.29.29,3.41.6,16.13,4.42,33.73,2.57,49.75,7.29,11.66,3.45,11.67,7.63,21.05,15.77Z"/>
                <path class="cls-48" d="M469.83,444.17c-1.5,4.53-7.59,16.45-8.92,21.25,20.28,7.39,20.79,8.53,21.25,11.88.71,5.21,22.93-13.11,25.31-18.33,3.84-8.4,1.26-7.12-10.69-9.96-.15.35-6.94,6.53-26.95-4.84Z"/>
                <path class="cls-26" d="M454.2,466.99c11.84,3.51,27.37-11.44,30.64-18.81,4.16-9.38-11.3-22.17-32.46-26.91-17.23-3.86-26.26,12.41-26.61,19.1-.69,13.39,11.5,21.59,28.43,26.62Z"/>
                <path class="cls-19" d="M479.79,485.69c-12.08-8.19-11.26-14.32-12.05-19.84-.85-5.93-1.62-10.66-16.06-14.92-4.17-1.23-.59-15.6-5.51-24.34-.42-.76-.91-1.48-1.47-2.14-1.47-1.72-3.45-3.08-6.13-3.84h-.03c-4.27-1.21-7.51.78-9.82,3.87-2.65,3.55-4.09,8.53-4.53,11.76-1.11,8.23,1.24,17.22,6.23,24.01,1.24,1.71,2.66,3.27,4.24,4.66,1.07.95,17.5,4.72,20.55,16.96,5.48,21.98,28.18,6.26,24.56,3.81Z"/>
                <path class="cls-26" d="M739.84,510.29s.03.01.04.01c-.04-.03-.09-.06-.13-.09.01.01.06.04.09.07Z"/>
                <path class="cls-37" d="M603.67,543.08c14.82,1.59,29.26-1.9,43.65-5.04,17.31-3.78,34.31-5.37,51.85-2.01.29.05.6-.35.21-.42-15.18-2.69-30.2-2.28-45.29.72-16.63,3.3-33.1,8.39-50.24,6.41-.23-.03-.5.31-.17.35h0Z"/>
                <path class="cls-37" d="M601.98,547.23c14.6,3.98,29.48,1.74,44.16-.54,17.31-2.7,34.49-3.88,52.01-3.39.19,0,.46-.28.16-.29-15.69-.85-31.46.14-46.99,2.45-16.24,2.41-32.75,5.77-48.96,1.38-.25-.07-.77.3-.39.4h0Z"/>
                <path class="cls-37" d="M615.83,489.36c27.56.33,54.95-5.43,82.52-3.1.3.03.67-.41.23-.44-27.68-1.85-54.98,3.58-82.63,3.3-.16,0-.37.24-.13.24h0Z"/>
                <path class="cls-37" d="M698.67,471.13c-.84,6.09-3.01,12.38-2.16,18.58.89,6.56,4.21,12.69,5.43,19.25,1.21,6.52,1.5,13.18,1.32,19.8-.17,6.01-.17,12.11-3.59,17.28-.1.15.73.1.86-.09,2.8-4.12,3.31-8.46,3.56-13.32.35-6.88.28-13.82-.72-20.65-.99-6.76-3.58-12.66-5.46-19.15-2.13-7.37.59-14.39,1.08-21.76,0-.06-.3-.01-.31.07h0Z"/>
                <path class="cls-30" d="M479.89,441.38c-.01.6-.11,1.26-.35,2.01-1.28,4.14-5.94,4.32-8.57,3.81-.27-.04-.51-.1-.73-.16-.57-.16-.89-.67-1.02-1.4-.4-2.28,1.03-6.75,1.9-9.87.61-2.15,1.1-3.13,1.74-3.4.57-.24,3.01,3.81,4,4.46,1.69,1.1,3.06,2.35,3.03,4.55Z"/>
                <g>
                  <path class="cls-26" d="M656.32,506.53c-.48,2.19-13.28-1.88-16.97-1.28,5-.2,15.02,3.85,14.69,6.26-.32,2.21-11.71-3.27-14.39-.87,3.86-.05,10.51,3.46,9.87,4.43-.54,1.89-3.45-.7-8.3-.43-1.47.07-3.12.41-4.92,1.21-3.45,1.53-3.46,1.16-6.39,2.76-1.75.96-4.15,1.4-6.04,2.33-13.24,6.47-25.87,13.97-46.34,17.78-2.04.38-4.15.73-6.35,1.03-1.91-2.67-3.81-6.46-4.15-7.34-1.44-3.74-1.2-11.75,0-15.21,5.12-.78,41.15-2.18,56.86-8.62,5.2-2.13,6.56-4.72,11.1-7.64,4.69-3.02,21.99-1.39,21.33-.32-1.36,2.48-7.47,1.45-14.69,1.45,2.36.32,15.17,2.36,14.69,4.46Z"/>
                  <path class="cls-14" d="M574.84,515.88c-6.72-.28-21.89,1-26.68,1.72-6.35.95-26.07-16.61-41.39-23.83-18.43-8.69-24.51-.2-25.54,5.25-1.04,5.47,5.34,15.71,10.33,19.97,15.47,13.22,32.78,17.1,52.2,22.28,6.47,1.73,33.22-2.16,36.6-3.11-2.25-2.39-8.87-8.64-5.52-22.28Z"/>
                </g>
                <path class="cls-31" d="M473.39,437.22c-.84,3.83-1.94,7.57-4.18,8.42-.4-2.28,1.03-6.75,1.9-9.87.61-2.15,1.1-3.13,1.74-3.4.78,1.58,1.02,2.65.54,4.84Z"/>
                <path class="cls-2" d="M479.89,441.38c-.01.6-.11,1.26-.35,2.01-1.28,4.14-5.94,4.32-8.57,3.81.59-2.3,3.31-4.54,6.94-5.47.68-.17,1.33-.29,1.98-.35Z"/>
              </g>
              <g>
                <ellipse class="cls-55" cx="622.8" cy="734.5" rx="134.75" ry="35.5"/>
                <g>
                  <g>
                    <g>
                      <path class="cls-41" d="M750.26,604.98c0,5.38-25.34,9.7-56.61,9.7s-56.61-3.48-56.61-9.7c0-6.87,25.35-5.38,56.61-5.38s56.61-1.6,56.61,5.38Z"/>
                      <path class="cls-41" d="M738.44,608.26l-.08-6.51c7.54-.1,13.08-1.93,16.49-5.44,3.49-3.6,3.51-7.8,3.51-7.84l-1.76-76.03,6.51-.15,1.76,76.05c0,.3.06,6.93-5.34,12.51-4.66,4.8-11.75,7.3-21.08,7.42Z"/>
                      <g>
                        <path class="cls-54" d="M742.58,572.41h-97.78c-5.52,0-10.32,3.8-11.59,9.17l-2.19,9.29c-1.76,7.47,3.98,13.56,11.59,14.63,37.24,5.26,80.3,5.26,102.09,0,7.43-1.79,13.3-7.09,11.61-14.54l-2.11-9.29c-1.23-5.42-6.05-9.26-11.61-9.26Z"/>
                        <ellipse class="cls-9" cx="693.65" cy="575.28" rx="54.23" ry="8.6"/>
                      </g>
                      <g>
                        <path class="cls-54" d="M731.84,494.82c-3.08.89-5.57,3.19-6,6.51-.05.37-.08.77-.08,1.18v.85c-1.85-.87-3.83-2.72-4.5-4.54-.28-.73-.42-1.51-.42-2.32v-9.26c0-4.06,3.63-7.34,8.12-7.34,11.14,0,22.24.35,28.78,2.34,3.48,1.06,5.67,1.41,5.87,2.83.13.94-1.12,2.87-7.04,4.63-4.66,1.39-24.73,5.11-24.73,5.11Z"/>
                        <path class="cls-54" d="M767.9,488.26l-.12,18.34v1.14c0,.08-.04.2-.1.34-1.16-.58-2.49-1.06-3.95-1.28l-33.89-2.94c-.42,0-.83-.02-1.23-.07v-.28c0-.8.1-1.54.32-2.21.81-2.7,3.25-4.31,7.02-5.14,0,0,22.87-2.99,27.66-5.3,1.59-.78,3.09-1.73,4.3-2.59Z"/>
                        <path class="cls-54" d="M763.61,490.84c1.59-.78,3.09-1.73,4.3-2.59l-.12,18.34v1.14c0,.08-.04.2-.1.34-.47,1.07-2.87,3.63-8.9,5.96-5.94,2.3-15.71,4.73-25.76,4.73-.5,0-1-.05-1.48-.15h0c-1.78-1.34-2.92-3.46-2.92-5.86v-9.26c0-.8.1-1.54.32-2.21.81-2.7,3.25-4.31,7.02-5.14,0,0,22.87-2.99,27.66-5.3Z"/>
                        <path class="cls-54" d="M770.85,485.97l-.15,23.14c0,.74-2.19,3.66-9,6.3-5.94,2.3-15.71,4.73-25.76,4.73-1.66,0-3.18-.55-4.41-1.48h0c-1.78-1.34-2.92-3.46-2.92-5.86v-9.26c0-.8.1-1.54.32-2.21.81-2.7,3.25-4.31,7.02-5.14,0,0,22.81-3.12,27.66-5.3,5.76-2.59,7.25-4.92,7.25-4.92Z"/>
                        <path class="cls-9" d="M770.85,485.92c.08,1.1-4.25,3.76-7.25,4.97-6.3,2.54-21.39,4.5-27.66,5.25-3.78.83-6.22,2.44-7.02,5.14-.21.67-.32,1.41-.32,2.21v9.26c0,2.4,2.11,5.51,4.98,7-3.34-.69-7.91-4.79-7.91-8.32v-9.27c0-.41-.07-1.4-.02-1.77.47-3.32,2.95-5.47,7.52-5.99,0,0,16.39-3.21,21.52-4.65,11.16-3.14,11.07-5.4,3.05-7.5-7.7-2.02-15.58-2.34-27.91-2.34-4.97,0-8.99,3.28-8.99,7.34v9.26c0,1.92,1.29,3.54,1.6,4.26-1.47-1.3-3.5-4.99-3.5-6.91v-9.27c0-4.05,4.02-7.33,8.99-7.33,12.33,0,24.64.66,31.57,2.36,9,2.22,11.1,2.88,11.35,6.3Z"/>
                      </g>
                    </g>
                    <g>
                      <circle class="cls-4" cx="721.51" cy="739.88" r="7.55" transform="translate(-155.46 1286.63) rotate(-77.66)"/>
                      <circle class="cls-4" cx="750" cy="729.62" r="7.55" transform="translate(-132.85 1291.25) rotate(-76.67)"/>
                      <polygon class="cls-41" points="664.05 700.5 673.7 699.46 727.57 727.31 719.49 729.99 664.05 700.5"/>
                      <circle class="cls-4" cx="639.42" cy="729.62" r="7.55" transform="translate(-229.72 298.58) rotate(-22.39)"/>
                      <path class="cls-12" d="M691.85,739.31c-30.87,0-62.02-7.53-62.02-24.35s31.15-24.35,62.02-24.35,62.02,7.53,62.02,24.35-31.15,24.35-62.02,24.35ZM643.96,714.96c2.49,3.29,18.7,10.39,47.89,10.39s45.4-7.1,47.89-10.39c-2.49-3.29-18.7-10.39-47.89-10.39s-45.4,7.1-47.89,10.39Z"/>
                      <path class="cls-41" d="M698.38,719.59c-2.36.85-8.43,1.11-13.06,0-2.9-.69-5.4-2.42-5.4-5.4v-69.24c0-2.98,2.42-5.4,5.4-5.4h13.06c2.98,0,5.4,2.42,5.4,5.4v69.24c0,2.98-2.59,4.39-5.4,5.4Z"/>
                      <path class="cls-41" d="M650.18,720.72l72.49-18.34c5.16-1.31,5.78,2.19,3.88,3.51l-66.99,18.73-9.37-3.91Z"/>
                      <path class="cls-12" d="M699.16,639.55c-1.64,3.23-12.1,4.39-14.62,0v-24.98h14.62v24.98Z"/>
                    </g>
                  </g>
                  <g>
                    <path class="cls-4" d="M639.36,760.51c-2.66,1.26.65,3.93,2.37,4.19,3.2.48,7.86-.83,10.86-1.97,4.5-1.71,9.78-3.66,13.67-6.48,4.69-3.4,6.38-6.37,7.81-11.88,1.11-4.31,3.03-9.71,6.99-12.13.94,1.19,1.16,1.33,2.29,2.03,3.63-1.93,10.21-8.15,10.65-12.89.13-1.46-3.93-6.58-5.36-6.83-3.18-.56-7.54,7.67-9.53,10.11-5.84,7.13-11.19,14.52-17.36,21.38-4.7,5.22-10.67,11.79-17.41,14.44-1.69.67-4.7,2.01-6.42,1.79.34-.25.66-.52,1.43-1.76Z"/>
                    <path class="cls-20" d="M649.64,716.12c-.01,9.08.73,18.43-2.26,27.48-1.17,3.54-8.34,12.55-9.43,15.82-2.52,7.55,18.7-.36,22.52-2.74,10.53-6.58,10.03-13.49,15.22-23.73,2.95-5.83,16.38-12.45,13.17-19.99-1.49-3.49-13.38-11.62-17.17-12.33-9.37-1.76-22.03,15.49-22.03,15.49Z"/>
                    <g>
                      <path class="cls-4" d="M552.19,730.92c-5.03,1.12-25.29,1.71-31.44,2.03-3.54.18-7.63-.23-10.48-.62.3,1.45,1.32,2.53,2.89,3.3,13.69.62,31.82-.04,36.67-1.53,2.94-1.96,14.2-3.84,18.43-4.16-.04,0-.2-1.65-.23-1.65-7.34-.32-10.81,1.49-15.83,2.62Z"/>
                      <path class="cls-4" d="M587.35,727.33c-4.15,1.25-12.58,1.71-19.33.98.62,4.32.64,5.75.64,5.75,4.82,1.24,14.6,1.18,18.54,0-.05-1.62.12-5.11.15-6.73Z"/>
                      <path class="cls-20" d="M588.55,700.97c-11.34,2.12-31.51,7.93-32.19-3.07-4.73,18.6-29.46,24.95-46.02,32.06-.22.89-.23,1.67-.08,2.37,2.85.39,6.94.8,10.48.62,6.15-.32,26.42-.91,31.44-2.03s10.53-2.45,12.1-2.46c.03,0,.08,0,.13,0,.29-.02.58-.04.88-.03,3.59-.15,15.55,1.1,22.05-1.1,1.73-6.27,1.44-17.45,1.2-26.36Z"/>
                    </g>
                    <path class="cls-52" d="M575,558.37c-31.63,17-41.46,27.62-37.76,48.2,5.75,32.04,8.18,56.77,11.71,82.08.81,9.83-3.93,17.5-3.85,24.13,10.18-2.95,24.14,4.85,43.64,4.34,1.45-2.94,2.74-55.21-3.17-96.16-2.08-14.45-5.01-13.71-1.13-17.35,8.2-7.69,61.73-24.85,75.05-30.37,17.59-7.3,33.68-43.15,17.22-54.19-10.3-6.91-20.78-3.9-31.23.49-27.05,11.38-57.33,31.75-70.47,38.81Z"/>
                    <path class="cls-47" d="M599.3,590.96c-7.64,10.89-11.39,29.07-3.24,40.63,35.08,49.73,45.81,85.07,51.01,92.76,12.23-1.54,27.16-6.14,35.85-19.65-7.73-5.43-11.2-27.52-20.75-47.95-12.13-25.95-22.54-28.63-26.1-40.72,6-.23,2.08-4.93,5.35-7.7,8.24-7.02,67.73-24.79,80.6-51.08,9.76-19.93-7.24-38.49-27.4-36.68-23.65,2.12-21.43.32-43.13,8.21-1.2,10.97-33.51,35.61-52.17,62.2Z"/>
                    <path class="cls-49" d="M630.42,536.69s-8.36-1.4-59.85,23.98c5.93-3.37,62.54-36.54,62.54-36.54l-2.69,12.56Z"/>
                    <path class="cls-48" d="M587.24,366.13c8.8,8.48,7.19,9.41,11.98,19.33,7.11-4.25,25.58-15.6,28.13-24.24-7.33-6.31-17.02-16.39-21.85-24.88-5.06,2.66-17.98,17.01-17.75,23.44.6.47.57,5.9-.5,6.36Z"/>
                    <path class="cls-26" d="M607.52,341.57c-2.98,14.21-21.82,35.43-27.28,34.59-14.17-2.18-28.78-24.32-31.62-42.09-.14-.87-.23-1.71-.3-2.53-.18-2.35-.04-4.54.35-6.56,2.33-11.93,13.7-18.44,25.2-20.28,14.16-2.27,37.34,19.25,33.64,36.87Z"/>
                    <path class="cls-48" d="M582.84,334.12c-3.25-2.06-6.05-4.45-9.55-6.02-5.46-2.45-10.63-3.86-16.44-1.46-3.01,1.25-5.55,3.28-8.4,4.83-.05.03-.09.05-.14.07-.18-2.35-.04-4.54.35-6.56.78-.47,1.59-.93,2.05-1.26,2.79-2.01,5.91-3.21,9.3-3.7,2.39-.34,4.63-.8,7.05-.37,2.93.53,5.42,2.15,7.97,3.62,3.54,2.04,7.59,6.59,7.8,10.85Z"/>
                    <path class="cls-50" d="M586.74,413.57c.05-6.33,9.65-32.85,12.24-37.28,5.48-9.38,16.07-21.94,25.44-27.06,2.44,4.68,6.79,9.09,10.37,12.8-7.9,6.88-18.91,16.51-27.13,23.15-4.78,3.86-8.23,7.17-11.94,12.03-2.92,3.82-8.32,17.65-8.98,16.35Z"/>
                    <path class="cls-42" d="M646.65,401.05c-3.52,12.64-21.1,24.32-30.65,32.09-6.11,4.98-10.89,9.97-16.32,14.07-3.81,2.87-7.93,5.32-13.05,7.01-1.75.57-3.47,1.02-5.2,1.33-9.23,1.76-18.38.36-28.44.36-9.65.01-19.63.62-28.91-1.37-.21-.47-.41-.97-.62-1.49-.85-2.16-1.61-4.8-1.8-8.33-.19-3.79.28-8.63,2.02-15.06,9.17-.43,18.53-2.83,27.54-2.38,6.03.3,3.68-1.97,12.79-3.07.35-.04.72.01,1.08.1,1.04.29,2.1,1,3.12,1.18,1.51.28,2.13-1.51,3.09-2.21,1.91-1.44,2.57.3,2.71.26,1.82-.43,1.84-2.29,3.62-2.71.43-.1.86-.34,1.29-.65,1.75-1.26,3.34-3.86,4.16-4.34,13.76-8.11,19.89-22.11,28.87-27.87,0,0,8.87-10.54,17.33-9.01,10.04,1.83,20.41,11.06,17.34,22.09Z"/>
                    <path class="cls-8" d="M592.9,449.61c-3.13,2.67-7.65,4.08-11.46,5.94-9.23,1.76-18.38.36-28.44.36-9.65.01-19.63.62-28.91-1.37-.21-.47-.41-.97-.62-1.49.41-.08.92-.11,1.55-.09,8.68.35,17.22.75,25.95.77,8.66.02,17.95-.49,25.96-4.1,6.6-2.97,10.89-8.44,16.26-12.9,1.95-1.61,5.58-4.72,7.13-2,2.47,4.31-4.73,12.59-7.41,14.87Z"/>
                    <path class="cls-31" d="M723.85,571.64c-8.74,6.86-4.1,4.85-19.57,12.25-2,.95-28.97,23.16-29.9,30.78-.37,3.09-11.74-5.72-15.79-14.54-.16-.34-.3-.66-.43-1-5.81-14.71-36.96-32.2-53.48-16.14,12.34-21.02,10.49-21.63,19.25-29.48.08-.06.15-.13.22-.2h0c.53-.5,1.02-.98,1.44-1.46,5.63-6.32,1.01-10.84-2.29-17.83-.97-2.03-1.82-4.27-2.27-6.83-1.27-7.17.52-13.55-4.32-19.99-2.08-2.74-5.29-4.65-7.58-7.16-.39-.43-.81-.95-1.28-1.55-1.7-2.2-3.85-5.5-6.13-9.52-6.05-10.7-13.01-26.54-14.98-40.68-4.48-32.15-.62-45.48,25.05-69.92,6.23-5.94,13.02-14.48,21.2-17.47.72.25,2.4.94,4.66,1.95,7.77,3.49,22.35,10.89,27.71,17.98,10.97,14.45,15.01,23.07,19.53,40.66,4.05,15.69,7.93,26.98,11.42,35.33,0,.03.03.06.04.09.04.1.09.22.14.32.45,1.07.89,2.08,1.33,3.05,2.19,4.9,4.2,8.62,5.93,11.59h0c3.19,5.39,5.52,8.25,6.6,10.94,1.39,3.49,2.28,6.55,3.27,9.47,1.37,4.07,2.95,7.84,6.44,12.02,2.98,3.58,5.07,8.68,6.15,13.83.6,2.74.89,5.48.89,8,0,7.59,1.82,10.42,5.24,22.37,1.55,5.43.83,15.81-8.51,23.14Z"/>
                    <path class="cls-8" d="M586.74,440.84c.51,8.84,14.25,45.26,14.98,48.13-6.05-10.7-13.01-26.54-14.98-40.68-4.48-32.15-.62-45.48,25.05-69.92,6.23-5.94,13.02-14.48,21.2-17.47.72.25,2.4.94,4.66,1.95-9.7.65-35.57,30.15-42.03,39.29-5.75,8.12-9.96,20-8.88,38.7Z"/>
                    <path class="cls-21" d="M522.44,432.5c-5.17-.05-3.36-5.56-14.45-8.49-7.25-1.92-11.73,1.22-17.26,5.33-2.91,2.16-6.57,6.55,4.53,7.29,1.28,1.57-.04,4.93,1.51,7.48,5.79,9.52,18.08,8,24.71,7.28.94-.1,2.9.14,3.65-.47,2.97-2.42,2.44-16.53-.08-18.93-.17.1-.63-.47-2.61.53Z"/>
                    <path class="cls-25" d="M553.49,313.71c-5.2,6.41-14.25,12.01-10.99,16.54,2.85.09,7.58-3.55,10.09-5.22,13.75-9.16,18.94.74,22.51,3.23,4.58,3.2,7.17,7,10.64,11.18.06-3.23-1.33-9.56,1.29-12.12,2.51-2.44,7.58-1.37,8.91,1.26,3.08,6.09,2.42,8.91,3.8,11.79,2.82,1.3,4.39,1.27,11.74,4.55,1.82-5.11-.73-8.69-.7-14.17.05-8.64-1.06-10-5.16-18.15-3.79-7.55-11.08-13.62-19.15-15.79-5.47-1.48-20.89,2.01-32.98,16.91Z"/>
                    <path class="cls-46" d="M593.8,373.61c-1.32,2.78-6.87,6.36-9.69,7.1-.96.24-2.9.1-5.36-.62-.04,0-.07-.02-.09-.02-2.58-.78-5.71-2.19-8.85-4.46-.03,0-.05-.02-.07-.05-2.25-1.62-4.5-3.68-6.55-6.26-.03-.03-.05-.05-.06-.07-2.01-2.53-3.82-5.55-5.27-9.14-.47-.07,17.85-12.9,21.72-16.92-.71,2.47-.83,5.88.06,8.74.3.95.7,1.83,1.24,2.61.44.64.96,1.2,1.58,1.65.2.15.4.28.62.4.63.34,1.24.63,1.82.86.61.24,1.2.42,1.77.54,1.02.21,1.97.24,2.87.1h0c3.53-.49,6.27-3.33,9.22-6.62.57,9.46-.31,12.41-4.97,22.18Z"/>
                    <path class="cls-31" d="M584.1,380.71s15.39-5.05,14.19-29.26l.19-15.74.81,4.65-.07,11.07c1.31,25.76-14.96,29.23-15.12,29.28Z"/>
                    <polygon class="cls-31" points="558.03 360.54 557.56 359.72 579.25 342.83 585.49 335.07 585.57 336.34 579.86 343.54 558.03 360.54"/>
                    <path class="cls-7" d="M501.45,429.01c2.29-.39,4.79-.82,7.03.16,2.45,1.07,1.56,2.54-.83,2.52-2.43-.03-9.35-.41-11.78-.64-2-.18-4.5,4.63,6.39,6.53,2.03.35,2,.04,3.34,1.47,1.12,1.2,2.93,2.11,4.34,2.89.83.46,1.68.88,2.58,1.22.99.36,2.54.31,3.4.77,2.01,1.07-.12,2.45-1.48,3.18-2.52,1.36-4.77.89-7.46.08-3.34-1,1.08-4.17-1.96-5.76-12.97-6.76-11.63-7.89-10.97-9.95.33-1.01,6.34-2.3,7.41-2.48Z"/>
                    <rect class="cls-15" x="470.01" y="443.52" width="54.99" height="1.15" rx=".56" ry=".56"/>
                    <path class="cls-46" d="M512.09,453.63c-3.04-8.17-4.06-8.36-14.29-11.27-1.39-.4-3.52-1.29-5-.96-1.26.28-1.21.71-1.68,2.16-1.03,3.23-2.2,6.63-2.2,10.09,0,3.08-1.59,8.31-.36,11.09.63,1.42,2.3,2.68,3.27,3.92,4.96,6.32,6.53,6.82,13.55,7.84,1.85.27,6.7,1.96,8.6,1.41,1.74-.5,1.82-2.81,2.38-4.65.57-1.87,4.07-15.98-1.49-14.13.26.05-1.91-3.15-2.78-5.49Z"/>
                    <path class="cls-42" d="M642.54,447.77c-33.38,42.48-33.1,43.66-46.23,46.72-24.33,5.65-50.25.79-85.24.8-.15-4.04.21-8.23.78-12.51,1.11-8.33,3.04-16.87,3.52-24.85,9.81-.34,19.65,1.4,29.69,1.4,7.76.01,15.3-1.29,21.22,3.42.28.21.55.44.82.69,1.37-3.53,3.9-3.2,5.49-.66-.06-.97-.36-6.14.28-6.67,2.29-1.91,3.94,1.47,5.39.64.12-.07.24-.14.35-.22,2.53-1.6,3.48-3.82,5.27-6.65,5.38-8.49,28.07-64.41,48.17-65.36,7.65-.37,13.27,1,17.38,3.36,6.48,3.69,9.29,9.84,10.58,15.6,2.32,10.37-9.35,34-17.47,44.3Z"/>
                    <path class="cls-15" d="M477.02,426.18h53.87c.31,0,.56.25.56.56v.03c0,.31-.25.56-.56.56h-53.87c-.31,0-.56-.25-.56-.56v-.03c0-.31.25-.56.56-.56Z" transform="translate(-130.18 242.46) rotate(-24.05)"/>
                    <path class="cls-15" d="M480.32,438.91c0,1.67-1.55,3.03-3.46,3.03s-3.46-1.36-3.46-3.03,1.55-3.03,3.46-3.03,3.46,1.36,3.46,3.03Z"/>
                    <path class="cls-8" d="M642.55,447.77c-33.38,42.48-33.1,43.66-46.24,46.72-24.33,5.66-50.24.79-85.24.81-.16-4.04.2-8.24.78-12.51,6.11,9.1,64.89,16.7,91.66,1.59,4.5-2.54,39.04-29.5,56.5-80.9,2.32,10.36-9.36,33.99-17.46,44.3Z"/>
                    <path class="cls-8" d="M723.85,571.64c-8.75,6.86-4.1,4.84-19.58,12.24-2,.96-28.96,23.17-29.89,30.79-.37,3.09-11.74-5.72-15.8-14.54,4.77-2.52,50.72-28.49,61.97-36.62,3.57-2.58,6.02-10.54,4.4-19.69-2.18-12.26-1.51-21.93,1.29-25.7.59,2.74.88,5.48.88,8.01,0,7.58,1.82,10.41,5.24,22.36,1.55,5.43.84,15.82-8.5,23.15Z"/>
                    <path class="cls-42" d="M694.36,498.27c3.05,5.34,15.3,29.2,15.68,36.23.19,3.48-43.24,16.77-44.9,15.39-.67-.56-.33-14.26-9.44-38.18,1.21.06,32.91-9.44,38.66-13.44Z"/>
                    <path class="cls-7" d="M580.86,354.51l-17.69,14.79s-.05-.05-.06-.07l16.51-17.32c.3.95.7,1.83,1.24,2.61Z"/>
                    <path class="cls-7" d="M584.89,357.42l-15.09,18.2s-.05-.02-.07-.05l12.72-19.41c.2.15.4.28.62.4.63.34,1.24.63,1.82.86Z"/>
                    <path class="cls-7" d="M589.53,358.06l-10.79,22.03s-.07-.02-.09-.02l8.01-22.12c1.02.21,1.97.24,2.87.1Z"/>
                  </g>
                  <path class="cls-51" d="M563.58,423.17c-.22.22-.41.4-.56.53.13-.36.34-.52.56-.53Z"/>
                  <path class="cls-8" d="M580.27,433.47c-3.94,4.59-6.12-7.75-8.59-4.69-1.34,1.66.49,5.42-1.21,7.31-1.94,2.15-3.45.3-3.87-1.85-.51-2.67.45-5.38-.43-8.03-.17-.51-.59-1.26-1.06-1.89,1.04.29,2.1,1,3.12,1.18,1.51.28,2.13-1.51,3.09-2.21,1.91-1.44,2.57.3,2.71.26,1.82-.43,1.84-2.29,3.62-2.71.43-.1.86-.34,1.29-.65.26,2,.12,4.63.49,6.1.51,2.06,2.54,5.21.83,7.18Z"/>
                  <path class="cls-8" d="M583.25,464.46c-2.62,1.76-4.53-2.64-6.85-2.46-.23,2.81,4.36,7.76,2.08,10.23-3.21,3.48-5.5-5.43-7.09-6.55-2.84-1.99-.64,5.22-1.64,6.81-2.64,4.18-3.06-4.18-3.14-5.66-.06-1.09-.05-2.64-.32-4.07.28.21.55.44.82.69,1.37-3.53,3.9-3.2,5.49-.66-.06-.97-.36-6.14.28-6.67,2.29-1.91,3.94,1.47,5.39.64.12-.07.24-.14.35-.22.14.14.29.29.43.44,1.28,1.41,6.74,5.77,4.2,7.49Z"/>
                  <path class="cls-8" d="M649.65,553.46c-3.12-1.65-5.9-1.85-9.37-2.18-3.96-.38-7.84-.43-11.8,0-.99.1-1.94.32-2.89.57,5.64-6.32,1.02-10.84-2.29-17.83,2.72.51,7.18,2.62,9.07,2.59,5.44-.09,11.74-3.42,17.17-2.27,3.9.82.91,2.81-1.57,3.6-2.75.87-5.65.86-8.37,2.03-5.67,2.45.12,5.79,3.75,6.42,2.71.46,6.13.94,8.34,2.67,1.48,1.17,5.57,8.41-2.03,4.39Z"/>
                  <path class="cls-8" d="M615.52,494.9c.89,1.99.68,4.01-.46,4.52-1.14.51-2.79-.69-3.67-2.67s-.68-4.01.46-4.52c1.14-.51,2.79.69,3.67,2.67Z"/>
                  <path class="cls-8" d="M628.29,523.59c.51,2.11-.06,4.07-1.27,4.36-1.22.3-2.62-1.18-3.13-3.29-.51-2.11.06-4.07,1.27-4.36,1.22-.3,2.62,1.18,3.13,3.29Z"/>
                </g>
              </g>
            </g>
            <polygon class="cls-27" points="568.12 199.82 375.69 388.12 572.08 492.49 601.06 217.53 568.12 199.82"/>
            <polygon class="cls-28" points="568.12 199.82 417.18 392.16 546.63 478.97 601.06 217.53 568.12 199.82"/>
          </g>
        </g>
      </g>
    </g>
  </g>
</svg>