<?xml version="1.0" encoding="UTF-8"?>
<svg id="Layer_2" data-name="Layer 2" xmlns="http://www.w3.org/2000/svg" viewBox="0 0 81.14 83.77">
  <defs>
    <style>
      .cls-1 {
        fill: #a9e0fa;
      }

      .cls-2 {
        fill: #8dbbd0;
      }

      .cls-3 {
        fill: #4078a7;
      }

      .cls-4 {
        fill: #fff;
      }

      .cls-5 {
        fill: #5096d1;
      }
    </style>
  </defs>
  <g id="Layer_1-2" data-name="Layer 1">
    <ellipse class="cls-5" cx="40.57" cy="41.89" rx="40.57" ry="41.89"/>
    <path class="cls-4" d="M28.97,29.82c-.91.13-1.9.21-2.97.19.7.44,5.14,3.22,9.72,1.94,2.44-.68,4.05-2.08,4.85-2.88v43.95c-3.44-2.27-11.27-8.13-16.14-18.89-5.75-12.72-3.74-24.27-2.89-28.14,1.31-.22,2.69-.53,4.13-.97,7.02-2.14,11.93-6.29,14.9-9.42v7.04c-.67,1.15-2.05,3.24-4.63,4.69-1.71.97-3.94,2.05-6.91,2.48h-.06Z"/>
    <path class="cls-4" d="M56.71,54.13c-4.87,10.76-12.7,16.62-16.14,18.89V29.07c.8.8,2.41,2.2,4.85,2.88,4.58,1.28,9.02-1.5,9.72-1.94-1.09.02-2.1-.06-3.03-.2-2.97-.43-5.2-1.51-6.91-2.48-2.58-1.45-3.96-3.54-4.63-4.69v-7.04c2.97,3.13,7.88,7.28,14.9,9.42,1.44.44,2.82.75,4.13.97.85,3.87,2.86,15.42-2.89,28.14Z"/>
    <path class="cls-1" d="M40.57,29.07v36.17c-2.94-3.11-7.68-7.16-10.77-14.15-3.86-8.74-3.77-16.39-3.8-21.08.7.44,5.14,3.22,9.72,1.94,2.44-.68,4.05-2.08,4.85-2.88Z"/>
    <path class="cls-3" d="M55.14,30.01c-.7.44-5.14,3.22-9.72,1.94-2.44-.68-4.05-2.08-4.85-2.88v-6.43c.67,1.15,2.05,3.24,4.63,4.69,1.71.97,3.94,2.05,6.91,2.48.93.14,1.94.22,3.03.2Z"/>
    <path class="cls-5" d="M51.61,50.51c-3.09,6.99-8.1,11.62-11.04,14.73V29.07c.8.8,2.41,2.2,4.85,2.88,4.58,1.28,9.02-1.5,9.72-1.94-.03,4.69.33,11.77-3.53,20.5Z"/>
    <path class="cls-2" d="M40.57,22.64v6.43c-.8.8-2.41,2.2-4.85,2.88-4.58,1.28-9.02-1.5-9.72-1.94,1.07.02,2.06-.06,2.97-.19h.06c2.97-.44,5.2-1.52,6.91-2.49,2.58-1.45,3.96-3.54,4.63-4.69Z"/>
  </g>
</svg>