<?xml version="1.0" encoding="UTF-8"?>
<svg id="Layer_1" data-name="Layer 1" xmlns="http://www.w3.org/2000/svg" viewBox="0 0 2499.59 306.88">
  <defs>
    <style>
      .cls-1 {
        fill: #ae0006;
      }
    </style>
  </defs>
  <path class="cls-1" d="M216.44,0H0v68.46h6.97c1.47-15.74,6.22-28.14,14.81-38.87,9.31-11.67,17.13-15.12,34.21-15.12h24.68v203.61c0,25.59-6.51,34.2-25.86,34.2h-9.17v6.9h125.65v-6.9h-8.78c-19.28,0-25.86-8.71-25.86-34.2V14.47h21.74c18.12,0,27.12,3.68,36.67,15.04,8.28,9.83,12.52,21.03,14.81,38.95h6.56V0"/>
  <path class="cls-1" d="M2499.59,2.38h-216.44v68.46h6.97c1.47-15.74,6.22-28.14,14.81-38.87,9.31-11.67,17.13-15.12,34.21-15.12h24.68v203.61c0,25.59-6.51,34.2-25.86,34.2h-9.17v6.9h125.65v-6.9h-8.78c-19.28,0-25.86-8.71-25.86-34.2V16.85h21.74c18.12,0,27.12,3.68,36.67,15.04,8.28,9.83,12.52,21.03,14.81,38.95h6.56V2.38"/>
  <path class="cls-1" d="M333.99,197.88l14.1,34.93,1.58,3.93c.74,1.82,1.13,3.84,1.13,5.79,0,7.7-6.12,10.87-21,10.87h-4.36v5.77h101.35v-5.77h-.95c-11.57,0-21.11-10.18-30.12-32.14l-74.88-182.64h-3.1l-71.21,172.98c-5.06,12.28-13.82,27.36-19.09,32.79-5.36,5.55-11.63,8.57-18.55,9v5.77h69.58v-5.77l-2.36-.04c-18.07-.26-25.58-4.99-25.58-16.06,0-3.78,1.13-8.07,3.75-14.43l10.35-25h69.37M329.26,186.36h-59.82l30.05-72.86,29.77,72.86"/>
  <path class="cls-1" d="M515.91,42.3h-71.84v5.77c8.35.39,15.75,4.56,23.52,13.3l3.93,4.4,3.1,3.23v154.73c0,21.59-7.33,29.29-28.19,29.62l-2.37.04v5.77h76.09v-5.77l-4.12-.04c-22.63-.3-29.96-7.57-29.96-29.58V82.01l159.76,180.36h5.49V83.83c0-27.41,6.05-35.39,27.14-35.76v-5.77h-70.73v5.77h2.8c22.85,0,29.34,7.92,29.34,35.76v98.95l-123.96-140.48"/>
  <path class="cls-1" d="M695.38,259.18l102.98.17c33.67.04,42.83-1.41,60.69-8.38,40.47-15.8,63.4-51.53,63.4-98.82,0-25.69-6.62-47.69-19.9-66.05-9.33-12.91-21.68-23.43-36.04-30.75-18.46-9.4-37.58-13.06-68.17-13.06h-102.96v5.77h6.51c17.4,0,23.26,7.31,23.26,28.97v147.75c0,21.42-5.86,28.62-23.26,28.62h-6.51v5.77M775.51,53.87h17.53c49.28,0,73.21,32.61,73.21,99.79,0,63.53-21.81,93.95-67.33,93.95-18.44,0-23.43-3.86-23.43-18.12l.02-6.47V53.87"/>
  <path class="cls-1" d="M1010.41,95.55c-38.36,11.72-66.82,56.67-66.82,105.51s28.61,93.79,66.82,105.82v-6.95c-12.32-6.11-20.63-15.61-26.3-30.17-3.21-8.22-5.51-17-6.8-26.16-1.82-12.92-2.89-29.14-2.89-43.8,0-54.3,11.37-85.05,35.98-97.37v-6.89"/>
  <path class="cls-1" d="M1087.12,215.24l10.49,25.96,1.18,2.92c.55,1.35.84,2.85.84,4.31,0,5.72-4.55,8.08-15.63,8.08h-3.24v4.29h75.41v-4.29h-.71c-8.6,0-15.71-7.56-22.41-23.88l-55.71-135.73h-2.31l-52.98,128.56c-3.76,9.13-10.28,20.33-14.21,24.37-3.99,4.13-8.65,6.37-13.8,6.69v4.29h51.77v-4.29l-1.76-.03c-13.45-.19-19.03-3.71-19.03-11.93,0-2.81.84-6,2.79-10.72l7.7-18.58h51.61M1083.6,206.67h-44.51l22.36-54.15,22.15,54.15"/>
  <path class="cls-1" d="M1215.77,99.61h-46.76v4.29c5.44.29,10.25,3.39,15.31,9.89l2.56,3.27,2.02,2.4v114.99c0,16.05-4.77,21.77-18.35,22.01l-1.54.03v4.29h49.53v-4.29l-2.68-.03c-14.73-.23-19.5-5.63-19.5-21.98v-105.37l103.99,134.04h3.57v-132.69c0-20.37,3.94-26.3,17.67-26.58v-4.29h-46.04v4.29h1.82c14.87,0,19.1,5.89,19.1,26.58v73.53l-80.69-104.4"/>
  <path class="cls-1" d="M1331.93,95.55v6.89c21.52,12.32,31.47,43.07,31.47,97.37,0,6.64-.2,13.8-.61,21.48-1.13,21.59-3.29,34.88-7.85,48.47-4.82,14.35-12.22,24.06-23.01,30.17v6.95c33.42-12.03,58.44-57.34,58.44-105.82s-24.89-93.79-58.44-105.51"/>
  <path class="cls-1" d="M1614.44,185.23h-5.68c-4.21,17.23-9.55,29.88-16.84,39.82-12.09,16.51-26.12,23-49.82,23h-20.96c-17.47,0-20.42-3.75-20.42-26.08V77.04c0-21.66,5.86-28.97,23.26-28.97h14.91v-5.77h-122.64v5.77h10.83c17.38,0,23.24,7.31,23.24,28.97v147.75c0,21.42-5.86,28.62-23.24,28.62h-10.83v5.77h190.46l7.72-73.95"/>
  <path class="cls-1" d="M1751.15,197.88l14.1,34.93,1.58,3.93c.74,1.82,1.13,3.84,1.13,5.79,0,7.7-6.12,10.87-21,10.87h-4.36v5.77h101.35v-5.77h-.95c-11.56,0-21.11-10.18-30.12-32.14l-74.88-182.64h-3.1l-71.21,172.98c-5.06,12.28-13.82,27.36-19.09,32.79-5.36,5.55-11.63,8.57-18.55,9v5.77h69.58v-5.77l-2.37-.04c-18.07-.26-25.58-4.99-25.58-16.06,0-3.78,1.13-8.07,3.75-14.43l10.35-25h69.37M1746.42,186.36h-59.82l30.05-72.86,29.77,72.86"/>
  <path class="cls-1" d="M2038.27,37.96h-6.08c-3.1,10.24-7.36,14.41-14.6,14.41-3.06,0-5.36-.61-11.63-3.1-20.87-8.27-36.67-11.8-52.9-11.8-63.27,0-114.67,53.03-114.67,118.32s47.37,108.25,117.86,108.25c30.23,0,60.97-6.9,82.02-18.42v-43.46l-.02-9.03c0-13.11,8.18-20.03,23.69-20.03h1.69v-5.42h-103.04v5.42h1.67c17.9,0,25.84,6.14,25.84,19.98l-.02,9.05v43.48c-11.52,5.27-20.66,7.49-30.75,7.49-15.58,0-30.16-6.31-40.94-17.77-15.1-16.04-21.83-40.53-21.83-79.63,0-66.61,23.41-106.02,62.97-106.02,22.2,0,42.59,10.7,58.13,30.42,7.72,9.81,11.52,17.05,16.53,31.53h6.08V37.96"/>
  <path class="cls-1" d="M2145.16,53.65h29.44c29.64,0,39.21,2.76,49.97,14.36,8.51,9.16,13.19,19.68,15.9,35.67h5.66v-61.39h-182.96v5.77h8.33c17.4,0,23.26,7.31,23.26,28.97v147.75c0,21.42-5.86,28.62-23.26,28.62h-8.33v5.77h188.4l9.87-66.92h-5.4c-12.28,38.12-33.85,55.4-69.04,55.4h-20.61c-17.34,0-21.24-4.62-21.24-25.17v-68.22h4.21c19.4,0,26.6,3.43,34.11,16.23,4.84,8.27,7.31,17.16,9.13,32.72h5.86v-110.32h-5.86c-2.21,17.55-4.14,24.48-9.13,33.2-7.64,13.32-14.88,16.86-34.5,16.86h-3.82V53.65"/>
</svg>