<?xml version="1.0" encoding="UTF-8"?>
<svg id="Layer_2" data-name="Layer 2" xmlns="http://www.w3.org/2000/svg" viewBox="0 0 56.14 63.87">
  <defs>
    <style>
      .cls-1 {
        fill: #a9e0fa;
      }

      .cls-2 {
        fill: #8dbbd0;
      }

      .cls-3 {
        fill: #4078a7;
      }

      .cls-4, .cls-5 {
        fill: #fff;
      }

      .cls-6 {
        fill: #d4effc;
      }

      .cls-7 {
        fill: #5096d1;
      }

      .cls-5 {
        stroke: #92d6e1;
      }

      .cls-5, .cls-8 {
        stroke-miterlimit: 10;
      }

      .cls-8 {
        fill: #e9e9ea;
        stroke: #231f20;
        stroke-width: .5px;
      }

      .cls-9 {
        fill: #bccfd9;
      }
    </style>
  </defs>
  <g id="Layer_1-2" data-name="Layer 1">
    <path class="cls-8" d="M50.54,53.23c-1.45,4.13-3.35,8.05-5.66,8.28-3.22.32-5.07-2.18-7.47-6.23-2.89-4.88-3.92-8.51-5.49-8.49-1.41.02-1.52,3.04-4.61,8.47-2.98,5.26-5.56,8.36-6.71,8.36-2.78-.01-5.32-9.8-5.93-11.91-2.67-9.22-7.52-33.28,1.52-37.79,5.21-2.6,15.79,5.93,18.18,7.64h.01c4.7-2.57,13.74-9.25,17.54-7.64,7.45,3.17,2.91,27.07-1.38,39.31Z"/>
    <path class="cls-4" d="M52.21,47.89c-4.42-.66-9.1-1.91-13.87-4-13.03-5.72-21.22-15.33-26.33-24.34.81-2.61,2.14-4.61,4.18-5.63,5.21-2.6,15.79,5.93,18.18,7.64h0c4.7-2.57,13.74-9.25,17.54-7.64,6.47,2.75,3.89,21.16.29,33.97Z"/>
    <path class="cls-9" d="M52.21,47.89c-.54,1.93-1.11,3.74-1.67,5.34-1.45,4.13-3.35,8.05-5.66,8.28-3.22.32-5.07-2.18-7.47-6.23-2.89-4.88-3.92-8.51-5.49-8.49-1.41.02-1.52,3.04-4.61,8.47-2.98,5.26-5.56,8.36-6.71,8.36-2.78-.01-5.32-9.8-5.93-11.91-2.07-7.14-5.45-23.2-2.66-32.16,5.11,9.01,13.3,18.62,26.33,24.34,4.77,2.09,9.45,3.34,13.87,4Z"/>
    <path class="cls-5" d="M25.78,27.63c-3.4,7.51-8.87,11.6-11.27,13.19-2.4-1.58-7.87-5.68-11.27-13.19C-.77,18.74.63,10.68,1.23,7.98c.91-.15,1.88-.37,2.88-.68C9.01,5.81,12.44,2.91,14.51.73c2.07,2.19,5.5,5.08,10.4,6.58,1.01.31,1.97.52,2.88.68.59,2.7,2,10.77-2.02,19.65Z"/>
    <path class="cls-1" d="M14.51,10.13v25.25c-2.05-2.17-5.36-5-7.52-9.88-2.69-6.1-2.63-11.44-2.65-14.72.49.31,3.59,2.25,6.79,1.35,1.7-.47,2.83-1.45,3.39-2.01Z"/>
    <path class="cls-3" d="M24.68,10.79c-.49.31-3.59,2.25-6.79,1.35-1.7-.47-2.83-1.45-3.39-2.01v-4.49c.47.8,1.43,2.26,3.23,3.27,1.19.68,2.75,1.43,4.82,1.73.65.1,1.35.15,2.12.14Z"/>
    <path class="cls-7" d="M22.22,25.1c-2.16,4.88-5.65,8.11-7.71,10.28V10.13c.56.56,1.68,1.54,3.39,2.01,3.2.89,6.3-1.05,6.79-1.35-.02,3.27.23,8.22-2.46,14.31Z"/>
    <path class="cls-2" d="M14.51,5.64v4.49c-.56.56-1.68,1.54-3.39,2.01-3.2.89-6.3-1.05-6.79-1.35.75.01,1.44-.04,2.07-.13h.04c2.07-.31,3.63-1.06,4.82-1.74,1.8-1.01,2.76-2.47,3.23-3.27Z"/>
    <path class="cls-6" d="M48.38,15.33c.09-.75,3.31-.81,4.42,1.13,1.19,2.06,1.8,5.83.84,5.84-.75,0-.66-1.13-.75-1.56-.19-.93-.32-1.34-.83-2.46-.65-1.43-.97-1.76-1.74-2.14-.62-.3-2.05-.02-1.95-.81Z"/>
    <path class="cls-9" d="M28.78,17.6c.72.42,2.07,1.3,2.51,1.62,1.22.9,2.04,1.48,3.08,2.34-.41.09-1.12.27-1.59.33-1.51.18-2.84.08-3.91-.09.18-.39.53-1.34.52-1.85-.01-1-.12-1.61-.61-2.34Z"/>
  </g>
</svg>